%
M48
M72
T01C0.0120
T02C0.0400
T03C0.1181
%
T01
X1225Y1025
X3925Y825
X5025Y2825
X6025Y4925
X7225Y6725
X7525Y7025
X7225Y7325
X6825Y8825
X6325Y9425
X7025Y9725
X6425Y10225
X5425Y10825
X5025Y12725
X5025Y13125
X5025Y13525
X5025Y13925
X5025Y14325
X4225Y14425
X4225Y15225
X4825Y15225
X5425Y15225
X6025Y15225
X6625Y15225
X7225Y15225
X7825Y15225
X8425Y15225
X9025Y15225
X9625Y15225
X11127Y13135
X11059Y10527
X11225Y9425
X11225Y8025
X9825Y8825
X8825Y8625
X8625Y9425
X8625Y10625
X8825Y13025
X5225Y7425
X2825Y7825
X2625Y8425
X2925Y9325
X2825Y11025
X2825Y12225
X2825Y14025
X9125Y6425
X8825Y6125
X8525Y5825
X8825Y4425
X8025Y4425
X11425Y3225
X11425Y2425
X12825Y1025
X13425Y725
T02
X1025Y2025
X1025Y3025
X1025Y4025
X1025Y5025
X1025Y6025
X1025Y7025
X1025Y8025
X1025Y9025
X1025Y10025
X1025Y11025
X1025Y12025
X1025Y13025
X1025Y14025
X1025Y15025
X4525Y1025
X5525Y1025
X6525Y1025
X7525Y1025
X8525Y1025
X9525Y1025
X13025Y2025
X13025Y3025
X13025Y4025
X13025Y5025
X13025Y6025
X13025Y7025
X13025Y8025
X13025Y9025
X13025Y10025
X13025Y11025
X13025Y12025
X13025Y13025
X13025Y14025
X13025Y15025
T03
X2587Y1209
X11445Y1209
M30
