G75*
%MOIN*%
%OFA0B0*%
%FSLAX25Y25*%
%IPPOS*%
%LPD*%
%AMOC8*
5,1,8,0,0,1.08239X$1,22.5*
%
%ADD10C,0.00000*%
%ADD11R,0.03937X0.04331*%
%ADD12R,0.04331X0.03937*%
%ADD13R,0.05906X0.03543*%
%ADD14R,0.03543X0.05906*%
%ADD15R,0.23622X0.23622*%
%ADD16R,0.10433X0.05512*%
%ADD17C,0.00787*%
%ADD18C,0.07400*%
%ADD19R,0.05512X0.03937*%
%ADD20C,0.02500*%
%ADD21C,0.02400*%
%ADD22C,0.01600*%
%ADD23C,0.01000*%
D10*
X0002250Y0006187D02*
X0006187Y0002250D01*
X0134140Y0002250D01*
X0138077Y0006187D01*
X0138077Y0155793D01*
X0134140Y0159730D01*
X0006187Y0159730D01*
X0002250Y0155793D01*
X0002250Y0006187D01*
X0019966Y0012093D02*
X0019968Y0012246D01*
X0019974Y0012400D01*
X0019984Y0012553D01*
X0019998Y0012705D01*
X0020016Y0012858D01*
X0020038Y0013009D01*
X0020063Y0013160D01*
X0020093Y0013311D01*
X0020127Y0013461D01*
X0020164Y0013609D01*
X0020205Y0013757D01*
X0020250Y0013903D01*
X0020299Y0014049D01*
X0020352Y0014193D01*
X0020408Y0014335D01*
X0020468Y0014476D01*
X0020532Y0014616D01*
X0020599Y0014754D01*
X0020670Y0014890D01*
X0020745Y0015024D01*
X0020822Y0015156D01*
X0020904Y0015286D01*
X0020988Y0015414D01*
X0021076Y0015540D01*
X0021167Y0015663D01*
X0021261Y0015784D01*
X0021359Y0015902D01*
X0021459Y0016018D01*
X0021563Y0016131D01*
X0021669Y0016242D01*
X0021778Y0016350D01*
X0021890Y0016455D01*
X0022004Y0016556D01*
X0022122Y0016655D01*
X0022241Y0016751D01*
X0022363Y0016844D01*
X0022488Y0016933D01*
X0022615Y0017020D01*
X0022744Y0017102D01*
X0022875Y0017182D01*
X0023008Y0017258D01*
X0023143Y0017331D01*
X0023280Y0017400D01*
X0023419Y0017465D01*
X0023559Y0017527D01*
X0023701Y0017585D01*
X0023844Y0017640D01*
X0023989Y0017691D01*
X0024135Y0017738D01*
X0024282Y0017781D01*
X0024430Y0017820D01*
X0024579Y0017856D01*
X0024729Y0017887D01*
X0024880Y0017915D01*
X0025031Y0017939D01*
X0025184Y0017959D01*
X0025336Y0017975D01*
X0025489Y0017987D01*
X0025642Y0017995D01*
X0025795Y0017999D01*
X0025949Y0017999D01*
X0026102Y0017995D01*
X0026255Y0017987D01*
X0026408Y0017975D01*
X0026560Y0017959D01*
X0026713Y0017939D01*
X0026864Y0017915D01*
X0027015Y0017887D01*
X0027165Y0017856D01*
X0027314Y0017820D01*
X0027462Y0017781D01*
X0027609Y0017738D01*
X0027755Y0017691D01*
X0027900Y0017640D01*
X0028043Y0017585D01*
X0028185Y0017527D01*
X0028325Y0017465D01*
X0028464Y0017400D01*
X0028601Y0017331D01*
X0028736Y0017258D01*
X0028869Y0017182D01*
X0029000Y0017102D01*
X0029129Y0017020D01*
X0029256Y0016933D01*
X0029381Y0016844D01*
X0029503Y0016751D01*
X0029622Y0016655D01*
X0029740Y0016556D01*
X0029854Y0016455D01*
X0029966Y0016350D01*
X0030075Y0016242D01*
X0030181Y0016131D01*
X0030285Y0016018D01*
X0030385Y0015902D01*
X0030483Y0015784D01*
X0030577Y0015663D01*
X0030668Y0015540D01*
X0030756Y0015414D01*
X0030840Y0015286D01*
X0030922Y0015156D01*
X0030999Y0015024D01*
X0031074Y0014890D01*
X0031145Y0014754D01*
X0031212Y0014616D01*
X0031276Y0014476D01*
X0031336Y0014335D01*
X0031392Y0014193D01*
X0031445Y0014049D01*
X0031494Y0013903D01*
X0031539Y0013757D01*
X0031580Y0013609D01*
X0031617Y0013461D01*
X0031651Y0013311D01*
X0031681Y0013160D01*
X0031706Y0013009D01*
X0031728Y0012858D01*
X0031746Y0012705D01*
X0031760Y0012553D01*
X0031770Y0012400D01*
X0031776Y0012246D01*
X0031778Y0012093D01*
X0031776Y0011940D01*
X0031770Y0011786D01*
X0031760Y0011633D01*
X0031746Y0011481D01*
X0031728Y0011328D01*
X0031706Y0011177D01*
X0031681Y0011026D01*
X0031651Y0010875D01*
X0031617Y0010725D01*
X0031580Y0010577D01*
X0031539Y0010429D01*
X0031494Y0010283D01*
X0031445Y0010137D01*
X0031392Y0009993D01*
X0031336Y0009851D01*
X0031276Y0009710D01*
X0031212Y0009570D01*
X0031145Y0009432D01*
X0031074Y0009296D01*
X0030999Y0009162D01*
X0030922Y0009030D01*
X0030840Y0008900D01*
X0030756Y0008772D01*
X0030668Y0008646D01*
X0030577Y0008523D01*
X0030483Y0008402D01*
X0030385Y0008284D01*
X0030285Y0008168D01*
X0030181Y0008055D01*
X0030075Y0007944D01*
X0029966Y0007836D01*
X0029854Y0007731D01*
X0029740Y0007630D01*
X0029622Y0007531D01*
X0029503Y0007435D01*
X0029381Y0007342D01*
X0029256Y0007253D01*
X0029129Y0007166D01*
X0029000Y0007084D01*
X0028869Y0007004D01*
X0028736Y0006928D01*
X0028601Y0006855D01*
X0028464Y0006786D01*
X0028325Y0006721D01*
X0028185Y0006659D01*
X0028043Y0006601D01*
X0027900Y0006546D01*
X0027755Y0006495D01*
X0027609Y0006448D01*
X0027462Y0006405D01*
X0027314Y0006366D01*
X0027165Y0006330D01*
X0027015Y0006299D01*
X0026864Y0006271D01*
X0026713Y0006247D01*
X0026560Y0006227D01*
X0026408Y0006211D01*
X0026255Y0006199D01*
X0026102Y0006191D01*
X0025949Y0006187D01*
X0025795Y0006187D01*
X0025642Y0006191D01*
X0025489Y0006199D01*
X0025336Y0006211D01*
X0025184Y0006227D01*
X0025031Y0006247D01*
X0024880Y0006271D01*
X0024729Y0006299D01*
X0024579Y0006330D01*
X0024430Y0006366D01*
X0024282Y0006405D01*
X0024135Y0006448D01*
X0023989Y0006495D01*
X0023844Y0006546D01*
X0023701Y0006601D01*
X0023559Y0006659D01*
X0023419Y0006721D01*
X0023280Y0006786D01*
X0023143Y0006855D01*
X0023008Y0006928D01*
X0022875Y0007004D01*
X0022744Y0007084D01*
X0022615Y0007166D01*
X0022488Y0007253D01*
X0022363Y0007342D01*
X0022241Y0007435D01*
X0022122Y0007531D01*
X0022004Y0007630D01*
X0021890Y0007731D01*
X0021778Y0007836D01*
X0021669Y0007944D01*
X0021563Y0008055D01*
X0021459Y0008168D01*
X0021359Y0008284D01*
X0021261Y0008402D01*
X0021167Y0008523D01*
X0021076Y0008646D01*
X0020988Y0008772D01*
X0020904Y0008900D01*
X0020822Y0009030D01*
X0020745Y0009162D01*
X0020670Y0009296D01*
X0020599Y0009432D01*
X0020532Y0009570D01*
X0020468Y0009710D01*
X0020408Y0009851D01*
X0020352Y0009993D01*
X0020299Y0010137D01*
X0020250Y0010283D01*
X0020205Y0010429D01*
X0020164Y0010577D01*
X0020127Y0010725D01*
X0020093Y0010875D01*
X0020063Y0011026D01*
X0020038Y0011177D01*
X0020016Y0011328D01*
X0019998Y0011481D01*
X0019984Y0011633D01*
X0019974Y0011786D01*
X0019968Y0011940D01*
X0019966Y0012093D01*
X0108549Y0012093D02*
X0108551Y0012246D01*
X0108557Y0012400D01*
X0108567Y0012553D01*
X0108581Y0012705D01*
X0108599Y0012858D01*
X0108621Y0013009D01*
X0108646Y0013160D01*
X0108676Y0013311D01*
X0108710Y0013461D01*
X0108747Y0013609D01*
X0108788Y0013757D01*
X0108833Y0013903D01*
X0108882Y0014049D01*
X0108935Y0014193D01*
X0108991Y0014335D01*
X0109051Y0014476D01*
X0109115Y0014616D01*
X0109182Y0014754D01*
X0109253Y0014890D01*
X0109328Y0015024D01*
X0109405Y0015156D01*
X0109487Y0015286D01*
X0109571Y0015414D01*
X0109659Y0015540D01*
X0109750Y0015663D01*
X0109844Y0015784D01*
X0109942Y0015902D01*
X0110042Y0016018D01*
X0110146Y0016131D01*
X0110252Y0016242D01*
X0110361Y0016350D01*
X0110473Y0016455D01*
X0110587Y0016556D01*
X0110705Y0016655D01*
X0110824Y0016751D01*
X0110946Y0016844D01*
X0111071Y0016933D01*
X0111198Y0017020D01*
X0111327Y0017102D01*
X0111458Y0017182D01*
X0111591Y0017258D01*
X0111726Y0017331D01*
X0111863Y0017400D01*
X0112002Y0017465D01*
X0112142Y0017527D01*
X0112284Y0017585D01*
X0112427Y0017640D01*
X0112572Y0017691D01*
X0112718Y0017738D01*
X0112865Y0017781D01*
X0113013Y0017820D01*
X0113162Y0017856D01*
X0113312Y0017887D01*
X0113463Y0017915D01*
X0113614Y0017939D01*
X0113767Y0017959D01*
X0113919Y0017975D01*
X0114072Y0017987D01*
X0114225Y0017995D01*
X0114378Y0017999D01*
X0114532Y0017999D01*
X0114685Y0017995D01*
X0114838Y0017987D01*
X0114991Y0017975D01*
X0115143Y0017959D01*
X0115296Y0017939D01*
X0115447Y0017915D01*
X0115598Y0017887D01*
X0115748Y0017856D01*
X0115897Y0017820D01*
X0116045Y0017781D01*
X0116192Y0017738D01*
X0116338Y0017691D01*
X0116483Y0017640D01*
X0116626Y0017585D01*
X0116768Y0017527D01*
X0116908Y0017465D01*
X0117047Y0017400D01*
X0117184Y0017331D01*
X0117319Y0017258D01*
X0117452Y0017182D01*
X0117583Y0017102D01*
X0117712Y0017020D01*
X0117839Y0016933D01*
X0117964Y0016844D01*
X0118086Y0016751D01*
X0118205Y0016655D01*
X0118323Y0016556D01*
X0118437Y0016455D01*
X0118549Y0016350D01*
X0118658Y0016242D01*
X0118764Y0016131D01*
X0118868Y0016018D01*
X0118968Y0015902D01*
X0119066Y0015784D01*
X0119160Y0015663D01*
X0119251Y0015540D01*
X0119339Y0015414D01*
X0119423Y0015286D01*
X0119505Y0015156D01*
X0119582Y0015024D01*
X0119657Y0014890D01*
X0119728Y0014754D01*
X0119795Y0014616D01*
X0119859Y0014476D01*
X0119919Y0014335D01*
X0119975Y0014193D01*
X0120028Y0014049D01*
X0120077Y0013903D01*
X0120122Y0013757D01*
X0120163Y0013609D01*
X0120200Y0013461D01*
X0120234Y0013311D01*
X0120264Y0013160D01*
X0120289Y0013009D01*
X0120311Y0012858D01*
X0120329Y0012705D01*
X0120343Y0012553D01*
X0120353Y0012400D01*
X0120359Y0012246D01*
X0120361Y0012093D01*
X0120359Y0011940D01*
X0120353Y0011786D01*
X0120343Y0011633D01*
X0120329Y0011481D01*
X0120311Y0011328D01*
X0120289Y0011177D01*
X0120264Y0011026D01*
X0120234Y0010875D01*
X0120200Y0010725D01*
X0120163Y0010577D01*
X0120122Y0010429D01*
X0120077Y0010283D01*
X0120028Y0010137D01*
X0119975Y0009993D01*
X0119919Y0009851D01*
X0119859Y0009710D01*
X0119795Y0009570D01*
X0119728Y0009432D01*
X0119657Y0009296D01*
X0119582Y0009162D01*
X0119505Y0009030D01*
X0119423Y0008900D01*
X0119339Y0008772D01*
X0119251Y0008646D01*
X0119160Y0008523D01*
X0119066Y0008402D01*
X0118968Y0008284D01*
X0118868Y0008168D01*
X0118764Y0008055D01*
X0118658Y0007944D01*
X0118549Y0007836D01*
X0118437Y0007731D01*
X0118323Y0007630D01*
X0118205Y0007531D01*
X0118086Y0007435D01*
X0117964Y0007342D01*
X0117839Y0007253D01*
X0117712Y0007166D01*
X0117583Y0007084D01*
X0117452Y0007004D01*
X0117319Y0006928D01*
X0117184Y0006855D01*
X0117047Y0006786D01*
X0116908Y0006721D01*
X0116768Y0006659D01*
X0116626Y0006601D01*
X0116483Y0006546D01*
X0116338Y0006495D01*
X0116192Y0006448D01*
X0116045Y0006405D01*
X0115897Y0006366D01*
X0115748Y0006330D01*
X0115598Y0006299D01*
X0115447Y0006271D01*
X0115296Y0006247D01*
X0115143Y0006227D01*
X0114991Y0006211D01*
X0114838Y0006199D01*
X0114685Y0006191D01*
X0114532Y0006187D01*
X0114378Y0006187D01*
X0114225Y0006191D01*
X0114072Y0006199D01*
X0113919Y0006211D01*
X0113767Y0006227D01*
X0113614Y0006247D01*
X0113463Y0006271D01*
X0113312Y0006299D01*
X0113162Y0006330D01*
X0113013Y0006366D01*
X0112865Y0006405D01*
X0112718Y0006448D01*
X0112572Y0006495D01*
X0112427Y0006546D01*
X0112284Y0006601D01*
X0112142Y0006659D01*
X0112002Y0006721D01*
X0111863Y0006786D01*
X0111726Y0006855D01*
X0111591Y0006928D01*
X0111458Y0007004D01*
X0111327Y0007084D01*
X0111198Y0007166D01*
X0111071Y0007253D01*
X0110946Y0007342D01*
X0110824Y0007435D01*
X0110705Y0007531D01*
X0110587Y0007630D01*
X0110473Y0007731D01*
X0110361Y0007836D01*
X0110252Y0007944D01*
X0110146Y0008055D01*
X0110042Y0008168D01*
X0109942Y0008284D01*
X0109844Y0008402D01*
X0109750Y0008523D01*
X0109659Y0008646D01*
X0109571Y0008772D01*
X0109487Y0008900D01*
X0109405Y0009030D01*
X0109328Y0009162D01*
X0109253Y0009296D01*
X0109182Y0009432D01*
X0109115Y0009570D01*
X0109051Y0009710D01*
X0108991Y0009851D01*
X0108935Y0009993D01*
X0108882Y0010137D01*
X0108833Y0010283D01*
X0108788Y0010429D01*
X0108747Y0010577D01*
X0108710Y0010725D01*
X0108676Y0010875D01*
X0108646Y0011026D01*
X0108621Y0011177D01*
X0108599Y0011328D01*
X0108581Y0011481D01*
X0108567Y0011633D01*
X0108557Y0011786D01*
X0108551Y0011940D01*
X0108549Y0012093D01*
D11*
X0096250Y0032904D03*
X0096250Y0039596D03*
D12*
X0104250Y0039596D03*
X0104250Y0032904D03*
X0036250Y0030904D03*
X0036250Y0037596D03*
D13*
X0034817Y0085565D03*
X0034817Y0090565D03*
X0034817Y0095565D03*
X0034817Y0100565D03*
X0034817Y0105565D03*
X0034817Y0110565D03*
X0034817Y0115565D03*
X0034817Y0120565D03*
X0034817Y0125565D03*
X0034817Y0130565D03*
X0034817Y0135565D03*
X0034817Y0140565D03*
X0034817Y0145565D03*
X0034817Y0150565D03*
X0105683Y0150565D03*
X0105683Y0145565D03*
X0105683Y0140565D03*
X0105683Y0135565D03*
X0105683Y0130565D03*
X0105683Y0125565D03*
X0105683Y0120565D03*
X0105683Y0115565D03*
X0105683Y0110565D03*
X0105683Y0105565D03*
X0105683Y0100565D03*
X0105683Y0095565D03*
X0105683Y0090565D03*
X0105683Y0085565D03*
D14*
X0092750Y0079699D03*
X0087750Y0079699D03*
X0082750Y0079699D03*
X0077750Y0079699D03*
X0072750Y0079699D03*
X0067750Y0079699D03*
X0062750Y0079699D03*
X0057750Y0079699D03*
X0052750Y0079699D03*
X0047750Y0079699D03*
D15*
X0070250Y0120250D03*
D16*
X0063341Y0055250D03*
X0077159Y0055250D03*
X0103341Y0055250D03*
X0037159Y0055250D03*
D17*
X0064068Y0042549D02*
X0064068Y0039399D01*
X0064068Y0042549D02*
X0066432Y0042549D01*
X0066432Y0039399D01*
X0064068Y0039399D01*
X0064068Y0040185D02*
X0066432Y0040185D01*
X0066432Y0040971D02*
X0064068Y0040971D01*
X0064068Y0041757D02*
X0066432Y0041757D01*
X0066432Y0042543D02*
X0064068Y0042543D01*
X0064068Y0033101D02*
X0064068Y0029951D01*
X0064068Y0033101D02*
X0066432Y0033101D01*
X0066432Y0029951D01*
X0064068Y0029951D01*
X0064068Y0030737D02*
X0066432Y0030737D01*
X0066432Y0031523D02*
X0064068Y0031523D01*
X0064068Y0032309D02*
X0066432Y0032309D01*
X0066432Y0033095D02*
X0064068Y0033095D01*
D18*
X0065250Y0010250D03*
X0055250Y0010250D03*
X0045250Y0010250D03*
X0075250Y0010250D03*
X0085250Y0010250D03*
X0095250Y0010250D03*
X0130250Y0020250D03*
X0130250Y0030250D03*
X0130250Y0040250D03*
X0130250Y0050250D03*
X0130250Y0060250D03*
X0130250Y0070250D03*
X0130250Y0080250D03*
X0130250Y0090250D03*
X0130250Y0100250D03*
X0130250Y0110250D03*
X0130250Y0120250D03*
X0130250Y0130250D03*
X0130250Y0140250D03*
X0130250Y0150250D03*
X0010250Y0150250D03*
X0010250Y0140250D03*
X0010250Y0130250D03*
X0010250Y0120250D03*
X0010250Y0110250D03*
X0010250Y0100250D03*
X0010250Y0090250D03*
X0010250Y0080250D03*
X0010250Y0070250D03*
X0010250Y0060250D03*
X0010250Y0050250D03*
X0010250Y0040250D03*
X0010250Y0030250D03*
X0010250Y0020250D03*
D19*
X0075919Y0034250D03*
X0084581Y0030510D03*
X0084581Y0037990D03*
D20*
X0084581Y0037990D01*
X0089587Y0037990D01*
X0089587Y0035725D01*
X0089433Y0035153D01*
X0089137Y0034640D01*
X0088747Y0034250D01*
X0089437Y0033560D01*
X0092031Y0033560D01*
X0092031Y0036001D01*
X0092334Y0036304D01*
X0092185Y0036563D01*
X0092031Y0037135D01*
X0092031Y0039596D01*
X0096250Y0039596D01*
X0096250Y0039597D01*
X0096250Y0044012D01*
X0093985Y0044012D01*
X0093413Y0043858D01*
X0092900Y0043562D01*
X0092481Y0043143D01*
X0092185Y0042630D01*
X0092031Y0042058D01*
X0092031Y0039597D01*
X0096250Y0039597D01*
X0096250Y0039597D01*
X0096250Y0044012D01*
X0098515Y0044012D01*
X0099087Y0043858D01*
X0099600Y0043562D01*
X0100019Y0043143D01*
X0100188Y0042850D01*
X0101153Y0043815D01*
X0101500Y0043815D01*
X0101500Y0050244D01*
X0097192Y0050244D01*
X0095874Y0051562D01*
X0095874Y0058938D01*
X0097192Y0060256D01*
X0102500Y0060256D01*
X0102500Y0081543D01*
X0101798Y0081543D01*
X0100480Y0082861D01*
X0100480Y0107500D01*
X0099703Y0107500D01*
X0098692Y0107919D01*
X0097919Y0108692D01*
X0093919Y0112692D01*
X0093500Y0113703D01*
X0093500Y0134111D01*
X0093111Y0134500D01*
X0061389Y0134500D01*
X0061200Y0134311D01*
X0069000Y0134311D01*
X0069000Y0121500D01*
X0071500Y0121500D01*
X0071500Y0134311D01*
X0082357Y0134311D01*
X0082929Y0134158D01*
X0083443Y0133861D01*
X0083861Y0133443D01*
X0084158Y0132929D01*
X0084311Y0132357D01*
X0084311Y0121500D01*
X0071500Y0121500D01*
X0071500Y0119000D01*
X0084311Y0119000D01*
X0084311Y0109181D01*
X0085564Y0109700D01*
X0086936Y0109700D01*
X0088204Y0109175D01*
X0089175Y0108204D01*
X0089700Y0106936D01*
X0089700Y0105564D01*
X0089175Y0104296D01*
X0089000Y0104121D01*
X0089000Y0096379D01*
X0089175Y0096204D01*
X0089700Y0094936D01*
X0089700Y0093564D01*
X0089175Y0092296D01*
X0088204Y0091325D01*
X0086936Y0090800D01*
X0085564Y0090800D01*
X0084296Y0091325D01*
X0083325Y0092296D01*
X0082800Y0093564D01*
X0082800Y0094936D01*
X0083325Y0096204D01*
X0083500Y0096379D01*
X0083500Y0104121D01*
X0083325Y0104296D01*
X0082800Y0105564D01*
X0082800Y0106308D01*
X0082357Y0106189D01*
X0071500Y0106189D01*
X0071500Y0119000D01*
X0069000Y0119000D01*
X0069000Y0106189D01*
X0058143Y0106189D01*
X0057570Y0106342D01*
X0057057Y0106639D01*
X0056639Y0107057D01*
X0056342Y0107570D01*
X0056189Y0108143D01*
X0056189Y0119000D01*
X0069000Y0119000D01*
X0069000Y0121500D01*
X0056189Y0121500D01*
X0056189Y0129300D01*
X0053700Y0126811D01*
X0053700Y0126564D01*
X0053175Y0125296D01*
X0052204Y0124325D01*
X0050936Y0123800D01*
X0049564Y0123800D01*
X0048296Y0124325D01*
X0047325Y0125296D01*
X0046800Y0126564D01*
X0046800Y0127936D01*
X0047325Y0129204D01*
X0047371Y0129250D01*
X0047325Y0129296D01*
X0046800Y0130564D01*
X0046800Y0131936D01*
X0047325Y0133204D01*
X0047371Y0133250D01*
X0047325Y0133296D01*
X0046800Y0134564D01*
X0046800Y0135936D01*
X0047325Y0137204D01*
X0047371Y0137250D01*
X0047325Y0137296D01*
X0046800Y0138564D01*
X0046800Y0139936D01*
X0047325Y0141204D01*
X0047371Y0141250D01*
X0047325Y0141296D01*
X0046800Y0142564D01*
X0046800Y0143936D01*
X0047325Y0145204D01*
X0048296Y0146175D01*
X0049564Y0146700D01*
X0049811Y0146700D01*
X0049919Y0146808D01*
X0050692Y0147581D01*
X0051703Y0148000D01*
X0100120Y0148000D01*
X0100480Y0148034D01*
X0100480Y0148269D01*
X0100529Y0148317D01*
X0100480Y0148497D01*
X0100480Y0150565D01*
X0105683Y0150565D01*
X0105683Y0150565D01*
X0105683Y0154587D01*
X0102434Y0154587D01*
X0101862Y0154433D01*
X0101349Y0154137D01*
X0100930Y0153718D01*
X0100634Y0153205D01*
X0100480Y0152633D01*
X0100480Y0150565D01*
X0105683Y0150565D01*
X0105683Y0150565D01*
X0105683Y0154587D01*
X0108932Y0154587D01*
X0109504Y0154433D01*
X0110017Y0154137D01*
X0110133Y0154022D01*
X0110692Y0154581D01*
X0111361Y0155250D01*
X0031137Y0155250D01*
X0031300Y0154857D01*
X0031300Y0154515D01*
X0031568Y0154587D01*
X0034817Y0154587D01*
X0034817Y0150565D01*
X0040020Y0150565D01*
X0040020Y0152633D01*
X0039866Y0153205D01*
X0039570Y0153718D01*
X0039151Y0154137D01*
X0038638Y0154433D01*
X0038066Y0154587D01*
X0034817Y0154587D01*
X0034817Y0150565D01*
X0034817Y0150565D01*
X0034817Y0150565D01*
X0040020Y0150565D01*
X0040020Y0148497D01*
X0039971Y0148317D01*
X0040020Y0148269D01*
X0040020Y0146899D01*
X0040296Y0147175D01*
X0041564Y0147700D01*
X0042936Y0147700D01*
X0044204Y0147175D01*
X0045175Y0146204D01*
X0045700Y0144936D01*
X0045700Y0143564D01*
X0045175Y0142296D01*
X0044204Y0141325D01*
X0042936Y0140800D01*
X0042689Y0140800D01*
X0040123Y0138234D01*
X0040020Y0138191D01*
X0040020Y0093000D01*
X0041111Y0093000D01*
X0052692Y0104581D01*
X0053703Y0105000D01*
X0062121Y0105000D01*
X0062296Y0105175D01*
X0063564Y0105700D01*
X0064936Y0105700D01*
X0066204Y0105175D01*
X0067175Y0104204D01*
X0067700Y0102936D01*
X0067700Y0101564D01*
X0067175Y0100296D01*
X0066879Y0100000D01*
X0068121Y0100000D01*
X0068296Y0100175D01*
X0069564Y0100700D01*
X0070936Y0100700D01*
X0072204Y0100175D01*
X0073175Y0099204D01*
X0073700Y0097936D01*
X0073700Y0096564D01*
X0073175Y0095296D01*
X0072204Y0094325D01*
X0070936Y0093800D01*
X0069564Y0093800D01*
X0068296Y0094325D01*
X0068121Y0094500D01*
X0066700Y0094500D01*
X0066700Y0093564D01*
X0066175Y0092296D01*
X0065204Y0091325D01*
X0063936Y0090800D01*
X0062564Y0090800D01*
X0061296Y0091325D01*
X0061121Y0091500D01*
X0058389Y0091500D01*
X0055500Y0088611D01*
X0055500Y0084902D01*
X0085074Y0084902D01*
X0084800Y0085564D01*
X0084800Y0086936D01*
X0085325Y0088204D01*
X0086296Y0089175D01*
X0087564Y0089700D01*
X0088936Y0089700D01*
X0090204Y0089175D01*
X0091175Y0088204D01*
X0091700Y0086936D01*
X0091700Y0085564D01*
X0091426Y0084902D01*
X0092750Y0084902D01*
X0092750Y0079699D01*
X0092750Y0079699D01*
X0092750Y0084902D01*
X0094818Y0084902D01*
X0095390Y0084748D01*
X0095903Y0084452D01*
X0096322Y0084033D01*
X0096618Y0083520D01*
X0096772Y0082948D01*
X0096772Y0079699D01*
X0092750Y0079699D01*
X0092750Y0079699D01*
X0096772Y0079699D01*
X0096772Y0076450D01*
X0096618Y0075878D01*
X0096322Y0075365D01*
X0095903Y0074946D01*
X0095390Y0074649D01*
X0094818Y0074496D01*
X0092750Y0074496D01*
X0092750Y0079699D01*
X0092750Y0079699D01*
X0092750Y0074496D01*
X0090682Y0074496D01*
X0090502Y0074544D01*
X0090454Y0074496D01*
X0088710Y0074496D01*
X0089000Y0073797D01*
X0089000Y0070389D01*
X0091689Y0067700D01*
X0091936Y0067700D01*
X0093204Y0067175D01*
X0094175Y0066204D01*
X0094700Y0064936D01*
X0094700Y0063564D01*
X0094175Y0062296D01*
X0093204Y0061325D01*
X0091936Y0060800D01*
X0091700Y0060800D01*
X0091700Y0060564D01*
X0091175Y0059296D01*
X0090204Y0058325D01*
X0088936Y0057800D01*
X0088700Y0057800D01*
X0088700Y0057564D01*
X0088175Y0056296D01*
X0087204Y0055325D01*
X0085936Y0054800D01*
X0084626Y0054800D01*
X0084626Y0052198D01*
X0084473Y0051626D01*
X0084176Y0051113D01*
X0083758Y0050694D01*
X0083244Y0050397D01*
X0082672Y0050244D01*
X0077287Y0050244D01*
X0077287Y0055122D01*
X0077031Y0055122D01*
X0063469Y0055122D01*
X0063469Y0055378D01*
X0070807Y0055378D01*
X0077031Y0055378D01*
X0077031Y0055122D01*
X0077031Y0050244D01*
X0071647Y0050244D01*
X0071074Y0050397D01*
X0070561Y0050694D01*
X0070250Y0051005D01*
X0069939Y0050694D01*
X0069426Y0050397D01*
X0068853Y0050244D01*
X0063572Y0050244D01*
X0063700Y0049936D01*
X0063700Y0049451D01*
X0067566Y0044941D01*
X0067929Y0044790D01*
X0068672Y0044047D01*
X0069075Y0043075D01*
X0069075Y0038874D01*
X0068672Y0037902D01*
X0067929Y0037158D01*
X0066957Y0036756D01*
X0063543Y0036756D01*
X0062571Y0037158D01*
X0061828Y0037902D01*
X0061425Y0038874D01*
X0061425Y0043075D01*
X0061587Y0043465D01*
X0059585Y0045800D01*
X0059564Y0045800D01*
X0058296Y0046325D01*
X0057325Y0047296D01*
X0056800Y0048564D01*
X0056800Y0049936D01*
X0057042Y0050521D01*
X0056742Y0050694D01*
X0056324Y0051113D01*
X0056027Y0051626D01*
X0055874Y0052198D01*
X0055874Y0055122D01*
X0063213Y0055122D01*
X0063213Y0055378D01*
X0063213Y0060256D01*
X0057828Y0060256D01*
X0057256Y0060103D01*
X0056742Y0059806D01*
X0056324Y0059387D01*
X0056027Y0058874D01*
X0055874Y0058302D01*
X0055874Y0055378D01*
X0063213Y0055378D01*
X0063469Y0055378D01*
X0063469Y0060256D01*
X0068853Y0060256D01*
X0069426Y0060103D01*
X0069939Y0059806D01*
X0070250Y0059495D01*
X0070561Y0059806D01*
X0071074Y0060103D01*
X0071647Y0060256D01*
X0077031Y0060256D01*
X0077031Y0055378D01*
X0077287Y0055378D01*
X0077287Y0060256D01*
X0079355Y0060256D01*
X0078692Y0060919D01*
X0078692Y0060919D01*
X0077919Y0061692D01*
X0077500Y0062703D01*
X0077500Y0067621D01*
X0077204Y0067325D01*
X0075936Y0066800D01*
X0075700Y0066800D01*
X0075700Y0066564D01*
X0075175Y0065296D01*
X0074204Y0064325D01*
X0072936Y0063800D01*
X0071564Y0063800D01*
X0070296Y0064325D01*
X0070121Y0064500D01*
X0062703Y0064500D01*
X0061692Y0064919D01*
X0060919Y0065692D01*
X0055419Y0071192D01*
X0055000Y0072203D01*
X0055000Y0074496D01*
X0050046Y0074496D01*
X0049998Y0074544D01*
X0049818Y0074496D01*
X0047750Y0074496D01*
X0047750Y0079699D01*
X0047750Y0079699D01*
X0047750Y0084902D01*
X0045682Y0084902D01*
X0045110Y0084748D01*
X0044597Y0084452D01*
X0044178Y0084033D01*
X0043882Y0083520D01*
X0043728Y0082948D01*
X0043728Y0079699D01*
X0047750Y0079699D01*
X0047750Y0084902D01*
X0049818Y0084902D01*
X0049998Y0084853D01*
X0050000Y0084855D01*
X0050000Y0090111D01*
X0043123Y0083234D01*
X0042112Y0082815D01*
X0039973Y0082815D01*
X0038702Y0081543D01*
X0030932Y0081543D01*
X0029614Y0082861D01*
X0029614Y0083357D01*
X0029175Y0082296D01*
X0028204Y0081325D01*
X0026936Y0080800D01*
X0026000Y0080800D01*
X0026000Y0074703D01*
X0025581Y0073692D01*
X0020581Y0068692D01*
X0019808Y0067919D01*
X0018797Y0067500D01*
X0015551Y0067500D01*
X0015294Y0066880D01*
X0013665Y0065250D01*
X0015294Y0063620D01*
X0016200Y0061434D01*
X0016200Y0059066D01*
X0015294Y0056880D01*
X0013665Y0055250D01*
X0015294Y0053620D01*
X0016200Y0051434D01*
X0016200Y0049066D01*
X0015294Y0046880D01*
X0013665Y0045250D01*
X0015294Y0043620D01*
X0016200Y0041434D01*
X0016200Y0039066D01*
X0015294Y0036880D01*
X0013665Y0035250D01*
X0015294Y0033620D01*
X0016200Y0031434D01*
X0016200Y0029066D01*
X0015294Y0026880D01*
X0013665Y0025250D01*
X0015294Y0023620D01*
X0016200Y0021434D01*
X0016200Y0019066D01*
X0015294Y0016880D01*
X0013620Y0015206D01*
X0011434Y0014300D01*
X0009066Y0014300D01*
X0007300Y0015032D01*
X0007300Y0009513D01*
X0009513Y0007300D01*
X0019131Y0007300D01*
X0018958Y0007473D01*
X0017717Y0010470D01*
X0017717Y0013715D01*
X0018958Y0016712D01*
X0021252Y0019006D01*
X0024250Y0020248D01*
X0027494Y0020248D01*
X0030492Y0019006D01*
X0032786Y0016712D01*
X0033200Y0015713D01*
X0033200Y0026685D01*
X0033153Y0026685D01*
X0031835Y0028003D01*
X0031835Y0033804D01*
X0032281Y0034250D01*
X0031835Y0034696D01*
X0031835Y0037791D01*
X0031823Y0037825D01*
X0031835Y0038021D01*
X0031835Y0040497D01*
X0033153Y0041815D01*
X0033200Y0041815D01*
X0033200Y0050244D01*
X0031011Y0050244D01*
X0029693Y0051562D01*
X0029693Y0058938D01*
X0031011Y0060256D01*
X0043308Y0060256D01*
X0044626Y0058938D01*
X0044626Y0051562D01*
X0043308Y0050244D01*
X0039300Y0050244D01*
X0039300Y0041815D01*
X0039347Y0041815D01*
X0040665Y0040497D01*
X0040665Y0038724D01*
X0043581Y0035808D01*
X0044000Y0034797D01*
X0044000Y0027317D01*
X0043581Y0026306D01*
X0042808Y0025533D01*
X0042007Y0024732D01*
X0042003Y0015345D01*
X0044066Y0016200D01*
X0046434Y0016200D01*
X0048620Y0015294D01*
X0050250Y0013665D01*
X0051880Y0015294D01*
X0054066Y0016200D01*
X0056434Y0016200D01*
X0058620Y0015294D01*
X0060250Y0013665D01*
X0061880Y0015294D01*
X0062500Y0015551D01*
X0062500Y0027781D01*
X0061828Y0028453D01*
X0061425Y0029425D01*
X0061425Y0033626D01*
X0061828Y0034598D01*
X0062571Y0035342D01*
X0063543Y0035744D01*
X0066957Y0035744D01*
X0067929Y0035342D01*
X0068672Y0034598D01*
X0069075Y0033626D01*
X0069075Y0029425D01*
X0068672Y0028453D01*
X0068000Y0027781D01*
X0068000Y0015551D01*
X0068620Y0015294D01*
X0070250Y0013665D01*
X0071880Y0015294D01*
X0074066Y0016200D01*
X0076434Y0016200D01*
X0077999Y0015552D01*
X0077283Y0016267D01*
X0072952Y0020598D01*
X0072419Y0021885D01*
X0072419Y0030031D01*
X0072231Y0030031D01*
X0070913Y0031350D01*
X0070913Y0037150D01*
X0072231Y0038468D01*
X0079575Y0038468D01*
X0079575Y0040255D01*
X0079728Y0040827D01*
X0080024Y0041340D01*
X0080443Y0041759D01*
X0080956Y0042055D01*
X0081529Y0042209D01*
X0084581Y0042209D01*
X0084581Y0037990D01*
X0089587Y0037990D01*
X0089587Y0040255D01*
X0089433Y0040827D01*
X0089137Y0041340D01*
X0088718Y0041759D01*
X0088205Y0042055D01*
X0087633Y0042209D01*
X0084581Y0042209D01*
X0084581Y0037990D01*
X0084581Y0037990D01*
X0084581Y0039728D02*
X0084581Y0039728D01*
X0089587Y0039728D02*
X0092031Y0039728D01*
X0092031Y0037229D02*
X0089587Y0037229D01*
X0089189Y0034731D02*
X0092031Y0034731D01*
X0096250Y0039728D02*
X0096250Y0039728D01*
X0096250Y0042226D02*
X0096250Y0042226D01*
X0092077Y0042226D02*
X0069075Y0042226D01*
X0067994Y0044725D02*
X0101500Y0044725D01*
X0101500Y0047223D02*
X0065609Y0047223D01*
X0063700Y0049722D02*
X0101500Y0049722D01*
X0107000Y0049722D02*
X0119500Y0049722D01*
X0119500Y0052220D02*
X0110807Y0052220D01*
X0110807Y0051562D02*
X0109489Y0050244D01*
X0107000Y0050244D01*
X0107000Y0043815D01*
X0107347Y0043815D01*
X0108665Y0042497D01*
X0108665Y0036696D01*
X0108219Y0036250D01*
X0108665Y0035804D01*
X0108665Y0032802D01*
X0108836Y0032631D01*
X0109300Y0031510D01*
X0109300Y0018471D01*
X0109835Y0019006D01*
X0112832Y0020248D01*
X0116077Y0020248D01*
X0119074Y0019006D01*
X0121369Y0016712D01*
X0122610Y0013715D01*
X0122610Y0010470D01*
X0121369Y0007473D01*
X0119074Y0005179D01*
X0117436Y0004500D01*
X0132121Y0004500D01*
X0131325Y0005296D01*
X0130800Y0006564D01*
X0130800Y0007936D01*
X0131325Y0009204D01*
X0132296Y0010175D01*
X0133500Y0010674D01*
X0133500Y0015156D01*
X0131434Y0014300D01*
X0129066Y0014300D01*
X0126880Y0015206D01*
X0125206Y0016880D01*
X0124949Y0017500D01*
X0123703Y0017500D01*
X0122692Y0017919D01*
X0121919Y0018692D01*
X0120692Y0019919D01*
X0119919Y0020692D01*
X0119500Y0021703D01*
X0119500Y0084111D01*
X0116111Y0087500D01*
X0110886Y0087500D01*
X0110886Y0082861D01*
X0109568Y0081543D01*
X0108000Y0081543D01*
X0108000Y0060256D01*
X0109489Y0060256D01*
X0110807Y0058938D01*
X0110807Y0051562D01*
X0110807Y0054719D02*
X0119500Y0054719D01*
X0119500Y0057217D02*
X0110807Y0057217D01*
X0110029Y0059716D02*
X0119500Y0059716D01*
X0119500Y0062214D02*
X0108000Y0062214D01*
X0108000Y0064713D02*
X0119500Y0064713D01*
X0119500Y0067211D02*
X0108000Y0067211D01*
X0108000Y0069710D02*
X0119500Y0069710D01*
X0119500Y0072208D02*
X0108000Y0072208D01*
X0108000Y0074707D02*
X0119500Y0074707D01*
X0119500Y0077205D02*
X0108000Y0077205D01*
X0108000Y0079704D02*
X0119500Y0079704D01*
X0119500Y0082202D02*
X0110227Y0082202D01*
X0110886Y0084701D02*
X0118910Y0084701D01*
X0116412Y0087199D02*
X0110886Y0087199D01*
X0102500Y0079704D02*
X0096772Y0079704D01*
X0096772Y0077205D02*
X0102500Y0077205D01*
X0102500Y0074707D02*
X0095490Y0074707D01*
X0092750Y0074707D02*
X0092750Y0074707D01*
X0092750Y0077205D02*
X0092750Y0077205D01*
X0092750Y0079704D02*
X0092750Y0079704D01*
X0092750Y0082202D02*
X0092750Y0082202D01*
X0092750Y0084701D02*
X0092750Y0084701D01*
X0095472Y0084701D02*
X0100480Y0084701D01*
X0100480Y0087199D02*
X0091591Y0087199D01*
X0088941Y0089698D02*
X0100480Y0089698D01*
X0100480Y0092196D02*
X0089075Y0092196D01*
X0087559Y0089698D02*
X0056587Y0089698D01*
X0055500Y0087199D02*
X0084909Y0087199D01*
X0083425Y0092196D02*
X0066075Y0092196D01*
X0072574Y0094695D02*
X0082800Y0094695D01*
X0083500Y0097193D02*
X0073700Y0097193D01*
X0072687Y0099692D02*
X0083500Y0099692D01*
X0083500Y0102190D02*
X0067700Y0102190D01*
X0066690Y0104689D02*
X0083162Y0104689D01*
X0084311Y0109686D02*
X0085530Y0109686D01*
X0086970Y0109686D02*
X0096925Y0109686D01*
X0094426Y0112184D02*
X0084311Y0112184D01*
X0084311Y0114683D02*
X0093500Y0114683D01*
X0093500Y0117182D02*
X0084311Y0117182D01*
X0084311Y0122179D02*
X0093500Y0122179D01*
X0093500Y0124677D02*
X0084311Y0124677D01*
X0084311Y0127176D02*
X0093500Y0127176D01*
X0093500Y0129674D02*
X0084311Y0129674D01*
X0084311Y0132173D02*
X0093500Y0132173D01*
X0093500Y0119680D02*
X0071500Y0119680D01*
X0071500Y0117182D02*
X0069000Y0117182D01*
X0069000Y0119680D02*
X0040020Y0119680D01*
X0040020Y0117182D02*
X0056189Y0117182D01*
X0056189Y0114683D02*
X0040020Y0114683D01*
X0040020Y0112184D02*
X0056189Y0112184D01*
X0056189Y0109686D02*
X0040020Y0109686D01*
X0040020Y0107187D02*
X0056563Y0107187D01*
X0052952Y0104689D02*
X0040020Y0104689D01*
X0040020Y0102190D02*
X0050301Y0102190D01*
X0047803Y0099692D02*
X0040020Y0099692D01*
X0040020Y0097193D02*
X0045304Y0097193D01*
X0042806Y0094695D02*
X0040020Y0094695D01*
X0047088Y0087199D02*
X0050000Y0087199D01*
X0050000Y0089698D02*
X0049587Y0089698D01*
X0047750Y0084701D02*
X0047750Y0084701D01*
X0047750Y0082202D02*
X0047750Y0082202D01*
X0045028Y0084701D02*
X0044590Y0084701D01*
X0043728Y0082202D02*
X0039361Y0082202D01*
X0043728Y0079704D02*
X0026000Y0079704D01*
X0026000Y0077205D02*
X0043728Y0077205D01*
X0043728Y0076450D02*
X0043882Y0075878D01*
X0044178Y0075365D01*
X0044597Y0074946D01*
X0045110Y0074649D01*
X0045682Y0074496D01*
X0047750Y0074496D01*
X0047750Y0079699D01*
X0047750Y0079699D01*
X0043728Y0079699D01*
X0043728Y0076450D01*
X0045010Y0074707D02*
X0026000Y0074707D01*
X0024097Y0072208D02*
X0055000Y0072208D01*
X0056901Y0069710D02*
X0021599Y0069710D01*
X0015877Y0062214D02*
X0077702Y0062214D01*
X0077500Y0064713D02*
X0074592Y0064713D01*
X0076929Y0067211D02*
X0077500Y0067211D01*
X0077287Y0059716D02*
X0077031Y0059716D01*
X0077031Y0057217D02*
X0077287Y0057217D01*
X0077287Y0054719D02*
X0077031Y0054719D01*
X0077031Y0052220D02*
X0077287Y0052220D01*
X0084626Y0052220D02*
X0095874Y0052220D01*
X0095874Y0054719D02*
X0084626Y0054719D01*
X0088556Y0057217D02*
X0095874Y0057217D01*
X0096652Y0059716D02*
X0091349Y0059716D01*
X0094093Y0062214D02*
X0102500Y0062214D01*
X0102500Y0064713D02*
X0094700Y0064713D01*
X0093116Y0067211D02*
X0102500Y0067211D01*
X0102500Y0069710D02*
X0089679Y0069710D01*
X0089000Y0072208D02*
X0102500Y0072208D01*
X0101139Y0082202D02*
X0096772Y0082202D01*
X0100480Y0094695D02*
X0089700Y0094695D01*
X0089000Y0097193D02*
X0100480Y0097193D01*
X0100480Y0099692D02*
X0089000Y0099692D01*
X0089000Y0102190D02*
X0100480Y0102190D01*
X0100480Y0104689D02*
X0089338Y0104689D01*
X0089596Y0107187D02*
X0100480Y0107187D01*
X0071500Y0107187D02*
X0069000Y0107187D01*
X0069000Y0109686D02*
X0071500Y0109686D01*
X0071500Y0112184D02*
X0069000Y0112184D01*
X0069000Y0114683D02*
X0071500Y0114683D01*
X0071500Y0122179D02*
X0069000Y0122179D01*
X0069000Y0124677D02*
X0071500Y0124677D01*
X0071500Y0127176D02*
X0069000Y0127176D01*
X0069000Y0129674D02*
X0071500Y0129674D01*
X0071500Y0132173D02*
X0069000Y0132173D01*
X0056189Y0127176D02*
X0054065Y0127176D01*
X0052556Y0124677D02*
X0056189Y0124677D01*
X0056189Y0122179D02*
X0040020Y0122179D01*
X0040020Y0124677D02*
X0047944Y0124677D01*
X0046800Y0127176D02*
X0040020Y0127176D01*
X0040020Y0129674D02*
X0047169Y0129674D01*
X0046898Y0132173D02*
X0040020Y0132173D01*
X0040020Y0134671D02*
X0046800Y0134671D01*
X0047311Y0137170D02*
X0040020Y0137170D01*
X0041557Y0139668D02*
X0046800Y0139668D01*
X0046964Y0142167D02*
X0045046Y0142167D01*
X0045700Y0144665D02*
X0047102Y0144665D01*
X0044215Y0147164D02*
X0050275Y0147164D01*
X0040285Y0147164D02*
X0040020Y0147164D01*
X0040020Y0149662D02*
X0100480Y0149662D01*
X0100480Y0152161D02*
X0040020Y0152161D01*
X0034817Y0152161D02*
X0034817Y0152161D01*
X0031300Y0154659D02*
X0110770Y0154659D01*
X0105683Y0152161D02*
X0105683Y0152161D01*
X0047750Y0079704D02*
X0047750Y0079704D01*
X0047750Y0079699D02*
X0047750Y0079699D01*
X0047750Y0077205D02*
X0047750Y0077205D01*
X0047750Y0074707D02*
X0047750Y0074707D01*
X0059400Y0067211D02*
X0015432Y0067211D01*
X0014202Y0064713D02*
X0062189Y0064713D01*
X0063213Y0059716D02*
X0063469Y0059716D01*
X0063469Y0057217D02*
X0063213Y0057217D01*
X0056652Y0059716D02*
X0043848Y0059716D01*
X0044626Y0057217D02*
X0055874Y0057217D01*
X0055874Y0054719D02*
X0044626Y0054719D01*
X0044626Y0052220D02*
X0055874Y0052220D01*
X0056800Y0049722D02*
X0039300Y0049722D01*
X0039300Y0047223D02*
X0057398Y0047223D01*
X0060507Y0044725D02*
X0039300Y0044725D01*
X0039300Y0042226D02*
X0061425Y0042226D01*
X0061425Y0039728D02*
X0040665Y0039728D01*
X0042160Y0037229D02*
X0062501Y0037229D01*
X0061960Y0034731D02*
X0044000Y0034731D01*
X0044000Y0032232D02*
X0061425Y0032232D01*
X0061425Y0029734D02*
X0044000Y0029734D01*
X0043966Y0027235D02*
X0062500Y0027235D01*
X0062500Y0024737D02*
X0042012Y0024737D01*
X0042006Y0022238D02*
X0062500Y0022238D01*
X0062500Y0019740D02*
X0042005Y0019740D01*
X0042004Y0017241D02*
X0062500Y0017241D01*
X0061328Y0014743D02*
X0059172Y0014743D01*
X0051328Y0014743D02*
X0049172Y0014743D01*
X0033200Y0017241D02*
X0032257Y0017241D01*
X0033200Y0019740D02*
X0028722Y0019740D01*
X0033200Y0022238D02*
X0015867Y0022238D01*
X0014178Y0024737D02*
X0033200Y0024737D01*
X0032603Y0027235D02*
X0015441Y0027235D01*
X0016200Y0029734D02*
X0031835Y0029734D01*
X0031835Y0032232D02*
X0015869Y0032232D01*
X0014184Y0034731D02*
X0031835Y0034731D01*
X0031835Y0037229D02*
X0015439Y0037229D01*
X0016200Y0039728D02*
X0031835Y0039728D01*
X0033200Y0042226D02*
X0015872Y0042226D01*
X0014190Y0044725D02*
X0033200Y0044725D01*
X0033200Y0047223D02*
X0015436Y0047223D01*
X0016200Y0049722D02*
X0033200Y0049722D01*
X0029693Y0052220D02*
X0015874Y0052220D01*
X0014196Y0054719D02*
X0029693Y0054719D01*
X0029693Y0057217D02*
X0015434Y0057217D01*
X0016200Y0059716D02*
X0030471Y0059716D01*
X0030273Y0082202D02*
X0029081Y0082202D01*
X0067999Y0037229D02*
X0070992Y0037229D01*
X0070913Y0034731D02*
X0068540Y0034731D01*
X0069075Y0032232D02*
X0070913Y0032232D01*
X0072419Y0029734D02*
X0069075Y0029734D01*
X0068000Y0027235D02*
X0072419Y0027235D01*
X0072419Y0024737D02*
X0068000Y0024737D01*
X0068000Y0022238D02*
X0072419Y0022238D01*
X0073811Y0019740D02*
X0068000Y0019740D01*
X0068000Y0017241D02*
X0076309Y0017241D01*
X0080250Y0018250D02*
X0075919Y0022581D01*
X0075919Y0034250D01*
X0079575Y0039728D02*
X0069075Y0039728D01*
X0070029Y0059716D02*
X0070471Y0059716D01*
X0080250Y0018250D02*
X0087250Y0018250D01*
X0095250Y0010250D01*
X0109300Y0019740D02*
X0111605Y0019740D01*
X0109300Y0022238D02*
X0119500Y0022238D01*
X0119500Y0024737D02*
X0109300Y0024737D01*
X0109300Y0027235D02*
X0119500Y0027235D01*
X0119500Y0029734D02*
X0109300Y0029734D01*
X0109001Y0032232D02*
X0119500Y0032232D01*
X0119500Y0034731D02*
X0108665Y0034731D01*
X0108665Y0037229D02*
X0119500Y0037229D01*
X0119500Y0039728D02*
X0108665Y0039728D01*
X0108665Y0042226D02*
X0119500Y0042226D01*
X0119500Y0044725D02*
X0107000Y0044725D01*
X0107000Y0047223D02*
X0119500Y0047223D01*
X0120871Y0019740D02*
X0117304Y0019740D01*
X0120840Y0017241D02*
X0125056Y0017241D01*
X0122184Y0014743D02*
X0127998Y0014743D01*
X0132502Y0014743D02*
X0133500Y0014743D01*
X0133500Y0012244D02*
X0122610Y0012244D01*
X0122310Y0009746D02*
X0131867Y0009746D01*
X0130800Y0007247D02*
X0121143Y0007247D01*
X0118036Y0004749D02*
X0131872Y0004749D01*
X0071328Y0014743D02*
X0069172Y0014743D01*
X0023022Y0019740D02*
X0016200Y0019740D01*
X0015444Y0017241D02*
X0019487Y0017241D01*
X0018142Y0014743D02*
X0012502Y0014743D01*
X0007998Y0014743D02*
X0007300Y0014743D01*
X0007300Y0012244D02*
X0017717Y0012244D01*
X0018017Y0009746D02*
X0007300Y0009746D01*
D21*
X0012250Y0010250D03*
X0039250Y0008250D03*
X0050250Y0028250D03*
X0060250Y0049250D03*
X0072250Y0067250D03*
X0075250Y0070250D03*
X0072250Y0073250D03*
X0068250Y0088250D03*
X0063250Y0094250D03*
X0070250Y0097250D03*
X0064250Y0102250D03*
X0054250Y0108250D03*
X0050250Y0127250D03*
X0050250Y0131250D03*
X0050250Y0135250D03*
X0050250Y0139250D03*
X0050250Y0143250D03*
X0042250Y0144250D03*
X0042250Y0152250D03*
X0048250Y0152250D03*
X0054250Y0152250D03*
X0060250Y0152250D03*
X0066250Y0152250D03*
X0072250Y0152250D03*
X0078250Y0152250D03*
X0084250Y0152250D03*
X0090250Y0152250D03*
X0096250Y0152250D03*
X0111274Y0131352D03*
X0110586Y0105268D03*
X0112250Y0094250D03*
X0112250Y0080250D03*
X0098250Y0088250D03*
X0088250Y0086250D03*
X0086250Y0094250D03*
X0086250Y0106250D03*
X0088250Y0130250D03*
X0052250Y0074250D03*
X0028250Y0078250D03*
X0026250Y0084250D03*
X0029250Y0093250D03*
X0028250Y0110250D03*
X0028250Y0122250D03*
X0028250Y0140250D03*
X0091250Y0064250D03*
X0088250Y0061250D03*
X0085250Y0058250D03*
X0088250Y0044250D03*
X0080250Y0044250D03*
X0114250Y0032250D03*
X0114250Y0024250D03*
X0128250Y0010250D03*
X0134250Y0007250D03*
D22*
X0106250Y0006250D02*
X0106250Y0030904D01*
X0104250Y0032904D01*
X0096904Y0032904D01*
X0096250Y0032250D01*
X0096923Y0031577D01*
X0095856Y0030510D01*
X0084581Y0030510D01*
X0096250Y0032250D02*
X0096250Y0032904D01*
X0105250Y0053341D02*
X0103341Y0055250D01*
X0105250Y0085132D02*
X0105683Y0085565D01*
X0075250Y0010250D02*
X0075250Y0005250D01*
X0076250Y0004250D01*
X0104250Y0004250D01*
X0106250Y0006250D01*
X0075250Y0005250D02*
X0074250Y0004250D01*
X0034250Y0004250D01*
X0036250Y0006250D01*
X0036250Y0030904D01*
X0036250Y0037596D02*
X0034904Y0038250D01*
X0036250Y0037596D02*
X0036250Y0054250D01*
X0037159Y0055250D01*
X0034817Y0095565D02*
X0031565Y0095565D01*
X0028250Y0110250D02*
X0028565Y0110565D01*
X0034817Y0125565D02*
X0034132Y0126250D01*
X0034817Y0135565D02*
X0034132Y0136250D01*
X0034817Y0145565D02*
X0034132Y0146250D01*
X0030250Y0146250D01*
X0028250Y0148250D01*
X0028250Y0154250D01*
X0026250Y0156250D01*
X0006250Y0156250D01*
X0004250Y0154250D01*
X0004250Y0008250D01*
X0008250Y0004250D01*
X0034250Y0004250D01*
D23*
X0039250Y0008250D02*
X0039258Y0025872D01*
X0041250Y0027864D01*
X0041250Y0034250D01*
X0037250Y0038250D01*
X0034904Y0038250D01*
X0018250Y0070250D02*
X0010250Y0070250D01*
X0018250Y0070250D02*
X0023250Y0075250D01*
X0023250Y0099250D01*
X0029565Y0105565D01*
X0034817Y0105565D01*
X0034817Y0110565D02*
X0028565Y0110565D01*
X0027565Y0115565D02*
X0022250Y0110250D01*
X0022250Y0104250D01*
X0018250Y0100250D01*
X0010250Y0100250D01*
X0026250Y0096250D02*
X0026250Y0084250D01*
X0029250Y0093250D02*
X0031565Y0095565D01*
X0030565Y0100565D02*
X0026250Y0096250D01*
X0030565Y0100565D02*
X0034817Y0100565D01*
X0034817Y0090565D02*
X0035132Y0090250D01*
X0042250Y0090250D01*
X0054250Y0102250D01*
X0064250Y0102250D01*
X0070250Y0097250D02*
X0053250Y0097250D01*
X0041565Y0085565D01*
X0034817Y0085565D01*
X0052750Y0089750D02*
X0052750Y0079699D01*
X0057750Y0079699D02*
X0057750Y0072750D01*
X0063250Y0067250D01*
X0072250Y0067250D01*
X0075250Y0070250D02*
X0067250Y0070250D01*
X0062750Y0074750D01*
X0062750Y0079699D01*
X0067750Y0079699D02*
X0067750Y0077750D01*
X0072250Y0073250D01*
X0072750Y0077750D02*
X0080250Y0070250D01*
X0080250Y0063250D01*
X0085250Y0058250D01*
X0088250Y0061250D02*
X0083250Y0066250D01*
X0083250Y0071250D01*
X0077750Y0076750D01*
X0077750Y0079699D01*
X0082750Y0079699D02*
X0082750Y0076750D01*
X0086250Y0073250D01*
X0086250Y0069250D01*
X0091250Y0064250D01*
X0087750Y0079699D02*
X0088250Y0080199D01*
X0088250Y0086250D01*
X0086250Y0094250D02*
X0086250Y0106250D01*
X0096250Y0114250D02*
X0100250Y0110250D01*
X0105368Y0110250D01*
X0105683Y0110565D01*
X0105683Y0105565D02*
X0110683Y0105565D01*
X0110586Y0105268D01*
X0114250Y0104250D02*
X0110250Y0100250D01*
X0105998Y0100250D01*
X0105683Y0100565D01*
X0106368Y0096250D02*
X0105683Y0095565D01*
X0106368Y0096250D02*
X0110250Y0096250D01*
X0116250Y0102250D01*
X0116250Y0136250D01*
X0120250Y0140250D01*
X0130250Y0140250D01*
X0130250Y0150250D02*
X0116250Y0150250D01*
X0114250Y0148250D01*
X0114250Y0104250D01*
X0118250Y0100250D02*
X0112250Y0094250D01*
X0117250Y0090250D02*
X0105998Y0090250D01*
X0105683Y0090565D01*
X0105250Y0085132D02*
X0105250Y0057574D01*
X0104957Y0056867D02*
X0103341Y0055250D01*
X0103957Y0054633D01*
X0104250Y0053926D02*
X0104250Y0039596D01*
X0104250Y0053926D02*
X0104248Y0053986D01*
X0104243Y0054047D01*
X0104234Y0054106D01*
X0104221Y0054165D01*
X0104205Y0054224D01*
X0104185Y0054281D01*
X0104162Y0054336D01*
X0104135Y0054391D01*
X0104106Y0054443D01*
X0104073Y0054494D01*
X0104037Y0054543D01*
X0103999Y0054589D01*
X0103957Y0054633D01*
X0104957Y0056867D02*
X0104999Y0056911D01*
X0105037Y0056957D01*
X0105073Y0057006D01*
X0105106Y0057057D01*
X0105135Y0057109D01*
X0105162Y0057164D01*
X0105185Y0057219D01*
X0105205Y0057276D01*
X0105221Y0057335D01*
X0105234Y0057394D01*
X0105243Y0057453D01*
X0105248Y0057514D01*
X0105250Y0057574D01*
X0122250Y0085250D02*
X0117250Y0090250D01*
X0122250Y0085250D02*
X0122250Y0022250D01*
X0124250Y0020250D01*
X0130250Y0020250D01*
X0136250Y0009250D02*
X0136250Y0152250D01*
X0132250Y0156250D01*
X0116250Y0156250D01*
X0112250Y0152250D01*
X0112250Y0138250D01*
X0110250Y0136250D01*
X0106368Y0136250D01*
X0105683Y0135565D01*
X0105683Y0140565D02*
X0102565Y0140565D01*
X0100250Y0143250D01*
X0054250Y0143250D01*
X0050250Y0139250D01*
X0050250Y0135250D02*
X0056250Y0141250D01*
X0098250Y0141250D01*
X0100250Y0139250D01*
X0100250Y0128250D01*
X0104250Y0124250D01*
X0104368Y0124250D01*
X0105683Y0125565D01*
X0105683Y0130565D02*
X0110486Y0130565D01*
X0111274Y0131352D01*
X0118250Y0128250D02*
X0118250Y0100250D01*
X0105683Y0115565D02*
X0104998Y0116250D01*
X0100250Y0116250D01*
X0098250Y0118250D01*
X0098250Y0137250D01*
X0096250Y0139250D01*
X0058250Y0139250D01*
X0050250Y0131250D01*
X0050250Y0127250D02*
X0060250Y0137250D01*
X0094250Y0137250D01*
X0096250Y0135250D01*
X0096250Y0114250D01*
X0118250Y0128250D02*
X0120250Y0130250D01*
X0130250Y0130250D01*
X0105683Y0145565D02*
X0103565Y0145565D01*
X0100250Y0145250D01*
X0052250Y0145250D01*
X0050250Y0143250D01*
X0042250Y0144250D02*
X0038565Y0140565D01*
X0034817Y0140565D01*
X0034132Y0136250D02*
X0030250Y0136250D01*
X0028250Y0138250D01*
X0028250Y0140250D01*
X0024250Y0136250D02*
X0024250Y0144250D01*
X0018250Y0150250D01*
X0010250Y0150250D01*
X0024250Y0136250D02*
X0031935Y0130565D01*
X0034817Y0130565D01*
X0034132Y0126250D02*
X0026250Y0126250D01*
X0020250Y0120250D01*
X0010250Y0120250D01*
X0027565Y0115565D02*
X0034817Y0115565D01*
X0034817Y0120565D02*
X0029935Y0120565D01*
X0028250Y0122250D01*
X0057250Y0094250D02*
X0052750Y0089750D01*
X0057250Y0094250D02*
X0063250Y0094250D01*
X0072750Y0079699D02*
X0072750Y0077750D01*
X0060250Y0049250D02*
X0066250Y0042250D01*
X0065250Y0040974D01*
X0065250Y0031526D02*
X0065250Y0010250D01*
X0134250Y0007250D02*
X0136250Y0009250D01*
M02*
