G75*
%MOIN*%
%OFA0B0*%
%FSLAX25Y25*%
%IPPOS*%
%LPD*%
%AMOC8*
5,1,8,0,0,1.08239X$1,22.5*
%
%ADD10C,0.00000*%
%ADD11C,0.07400*%
%ADD12C,0.02500*%
%ADD13C,0.02400*%
%ADD14C,0.01000*%
D10*
X0002250Y0006187D02*
X0006187Y0002250D01*
X0134140Y0002250D01*
X0138077Y0006187D01*
X0138077Y0155793D01*
X0134140Y0159730D01*
X0006187Y0159730D01*
X0002250Y0155793D01*
X0002250Y0006187D01*
X0019966Y0012093D02*
X0019968Y0012246D01*
X0019974Y0012400D01*
X0019984Y0012553D01*
X0019998Y0012705D01*
X0020016Y0012858D01*
X0020038Y0013009D01*
X0020063Y0013160D01*
X0020093Y0013311D01*
X0020127Y0013461D01*
X0020164Y0013609D01*
X0020205Y0013757D01*
X0020250Y0013903D01*
X0020299Y0014049D01*
X0020352Y0014193D01*
X0020408Y0014335D01*
X0020468Y0014476D01*
X0020532Y0014616D01*
X0020599Y0014754D01*
X0020670Y0014890D01*
X0020745Y0015024D01*
X0020822Y0015156D01*
X0020904Y0015286D01*
X0020988Y0015414D01*
X0021076Y0015540D01*
X0021167Y0015663D01*
X0021261Y0015784D01*
X0021359Y0015902D01*
X0021459Y0016018D01*
X0021563Y0016131D01*
X0021669Y0016242D01*
X0021778Y0016350D01*
X0021890Y0016455D01*
X0022004Y0016556D01*
X0022122Y0016655D01*
X0022241Y0016751D01*
X0022363Y0016844D01*
X0022488Y0016933D01*
X0022615Y0017020D01*
X0022744Y0017102D01*
X0022875Y0017182D01*
X0023008Y0017258D01*
X0023143Y0017331D01*
X0023280Y0017400D01*
X0023419Y0017465D01*
X0023559Y0017527D01*
X0023701Y0017585D01*
X0023844Y0017640D01*
X0023989Y0017691D01*
X0024135Y0017738D01*
X0024282Y0017781D01*
X0024430Y0017820D01*
X0024579Y0017856D01*
X0024729Y0017887D01*
X0024880Y0017915D01*
X0025031Y0017939D01*
X0025184Y0017959D01*
X0025336Y0017975D01*
X0025489Y0017987D01*
X0025642Y0017995D01*
X0025795Y0017999D01*
X0025949Y0017999D01*
X0026102Y0017995D01*
X0026255Y0017987D01*
X0026408Y0017975D01*
X0026560Y0017959D01*
X0026713Y0017939D01*
X0026864Y0017915D01*
X0027015Y0017887D01*
X0027165Y0017856D01*
X0027314Y0017820D01*
X0027462Y0017781D01*
X0027609Y0017738D01*
X0027755Y0017691D01*
X0027900Y0017640D01*
X0028043Y0017585D01*
X0028185Y0017527D01*
X0028325Y0017465D01*
X0028464Y0017400D01*
X0028601Y0017331D01*
X0028736Y0017258D01*
X0028869Y0017182D01*
X0029000Y0017102D01*
X0029129Y0017020D01*
X0029256Y0016933D01*
X0029381Y0016844D01*
X0029503Y0016751D01*
X0029622Y0016655D01*
X0029740Y0016556D01*
X0029854Y0016455D01*
X0029966Y0016350D01*
X0030075Y0016242D01*
X0030181Y0016131D01*
X0030285Y0016018D01*
X0030385Y0015902D01*
X0030483Y0015784D01*
X0030577Y0015663D01*
X0030668Y0015540D01*
X0030756Y0015414D01*
X0030840Y0015286D01*
X0030922Y0015156D01*
X0030999Y0015024D01*
X0031074Y0014890D01*
X0031145Y0014754D01*
X0031212Y0014616D01*
X0031276Y0014476D01*
X0031336Y0014335D01*
X0031392Y0014193D01*
X0031445Y0014049D01*
X0031494Y0013903D01*
X0031539Y0013757D01*
X0031580Y0013609D01*
X0031617Y0013461D01*
X0031651Y0013311D01*
X0031681Y0013160D01*
X0031706Y0013009D01*
X0031728Y0012858D01*
X0031746Y0012705D01*
X0031760Y0012553D01*
X0031770Y0012400D01*
X0031776Y0012246D01*
X0031778Y0012093D01*
X0031776Y0011940D01*
X0031770Y0011786D01*
X0031760Y0011633D01*
X0031746Y0011481D01*
X0031728Y0011328D01*
X0031706Y0011177D01*
X0031681Y0011026D01*
X0031651Y0010875D01*
X0031617Y0010725D01*
X0031580Y0010577D01*
X0031539Y0010429D01*
X0031494Y0010283D01*
X0031445Y0010137D01*
X0031392Y0009993D01*
X0031336Y0009851D01*
X0031276Y0009710D01*
X0031212Y0009570D01*
X0031145Y0009432D01*
X0031074Y0009296D01*
X0030999Y0009162D01*
X0030922Y0009030D01*
X0030840Y0008900D01*
X0030756Y0008772D01*
X0030668Y0008646D01*
X0030577Y0008523D01*
X0030483Y0008402D01*
X0030385Y0008284D01*
X0030285Y0008168D01*
X0030181Y0008055D01*
X0030075Y0007944D01*
X0029966Y0007836D01*
X0029854Y0007731D01*
X0029740Y0007630D01*
X0029622Y0007531D01*
X0029503Y0007435D01*
X0029381Y0007342D01*
X0029256Y0007253D01*
X0029129Y0007166D01*
X0029000Y0007084D01*
X0028869Y0007004D01*
X0028736Y0006928D01*
X0028601Y0006855D01*
X0028464Y0006786D01*
X0028325Y0006721D01*
X0028185Y0006659D01*
X0028043Y0006601D01*
X0027900Y0006546D01*
X0027755Y0006495D01*
X0027609Y0006448D01*
X0027462Y0006405D01*
X0027314Y0006366D01*
X0027165Y0006330D01*
X0027015Y0006299D01*
X0026864Y0006271D01*
X0026713Y0006247D01*
X0026560Y0006227D01*
X0026408Y0006211D01*
X0026255Y0006199D01*
X0026102Y0006191D01*
X0025949Y0006187D01*
X0025795Y0006187D01*
X0025642Y0006191D01*
X0025489Y0006199D01*
X0025336Y0006211D01*
X0025184Y0006227D01*
X0025031Y0006247D01*
X0024880Y0006271D01*
X0024729Y0006299D01*
X0024579Y0006330D01*
X0024430Y0006366D01*
X0024282Y0006405D01*
X0024135Y0006448D01*
X0023989Y0006495D01*
X0023844Y0006546D01*
X0023701Y0006601D01*
X0023559Y0006659D01*
X0023419Y0006721D01*
X0023280Y0006786D01*
X0023143Y0006855D01*
X0023008Y0006928D01*
X0022875Y0007004D01*
X0022744Y0007084D01*
X0022615Y0007166D01*
X0022488Y0007253D01*
X0022363Y0007342D01*
X0022241Y0007435D01*
X0022122Y0007531D01*
X0022004Y0007630D01*
X0021890Y0007731D01*
X0021778Y0007836D01*
X0021669Y0007944D01*
X0021563Y0008055D01*
X0021459Y0008168D01*
X0021359Y0008284D01*
X0021261Y0008402D01*
X0021167Y0008523D01*
X0021076Y0008646D01*
X0020988Y0008772D01*
X0020904Y0008900D01*
X0020822Y0009030D01*
X0020745Y0009162D01*
X0020670Y0009296D01*
X0020599Y0009432D01*
X0020532Y0009570D01*
X0020468Y0009710D01*
X0020408Y0009851D01*
X0020352Y0009993D01*
X0020299Y0010137D01*
X0020250Y0010283D01*
X0020205Y0010429D01*
X0020164Y0010577D01*
X0020127Y0010725D01*
X0020093Y0010875D01*
X0020063Y0011026D01*
X0020038Y0011177D01*
X0020016Y0011328D01*
X0019998Y0011481D01*
X0019984Y0011633D01*
X0019974Y0011786D01*
X0019968Y0011940D01*
X0019966Y0012093D01*
X0108549Y0012093D02*
X0108551Y0012246D01*
X0108557Y0012400D01*
X0108567Y0012553D01*
X0108581Y0012705D01*
X0108599Y0012858D01*
X0108621Y0013009D01*
X0108646Y0013160D01*
X0108676Y0013311D01*
X0108710Y0013461D01*
X0108747Y0013609D01*
X0108788Y0013757D01*
X0108833Y0013903D01*
X0108882Y0014049D01*
X0108935Y0014193D01*
X0108991Y0014335D01*
X0109051Y0014476D01*
X0109115Y0014616D01*
X0109182Y0014754D01*
X0109253Y0014890D01*
X0109328Y0015024D01*
X0109405Y0015156D01*
X0109487Y0015286D01*
X0109571Y0015414D01*
X0109659Y0015540D01*
X0109750Y0015663D01*
X0109844Y0015784D01*
X0109942Y0015902D01*
X0110042Y0016018D01*
X0110146Y0016131D01*
X0110252Y0016242D01*
X0110361Y0016350D01*
X0110473Y0016455D01*
X0110587Y0016556D01*
X0110705Y0016655D01*
X0110824Y0016751D01*
X0110946Y0016844D01*
X0111071Y0016933D01*
X0111198Y0017020D01*
X0111327Y0017102D01*
X0111458Y0017182D01*
X0111591Y0017258D01*
X0111726Y0017331D01*
X0111863Y0017400D01*
X0112002Y0017465D01*
X0112142Y0017527D01*
X0112284Y0017585D01*
X0112427Y0017640D01*
X0112572Y0017691D01*
X0112718Y0017738D01*
X0112865Y0017781D01*
X0113013Y0017820D01*
X0113162Y0017856D01*
X0113312Y0017887D01*
X0113463Y0017915D01*
X0113614Y0017939D01*
X0113767Y0017959D01*
X0113919Y0017975D01*
X0114072Y0017987D01*
X0114225Y0017995D01*
X0114378Y0017999D01*
X0114532Y0017999D01*
X0114685Y0017995D01*
X0114838Y0017987D01*
X0114991Y0017975D01*
X0115143Y0017959D01*
X0115296Y0017939D01*
X0115447Y0017915D01*
X0115598Y0017887D01*
X0115748Y0017856D01*
X0115897Y0017820D01*
X0116045Y0017781D01*
X0116192Y0017738D01*
X0116338Y0017691D01*
X0116483Y0017640D01*
X0116626Y0017585D01*
X0116768Y0017527D01*
X0116908Y0017465D01*
X0117047Y0017400D01*
X0117184Y0017331D01*
X0117319Y0017258D01*
X0117452Y0017182D01*
X0117583Y0017102D01*
X0117712Y0017020D01*
X0117839Y0016933D01*
X0117964Y0016844D01*
X0118086Y0016751D01*
X0118205Y0016655D01*
X0118323Y0016556D01*
X0118437Y0016455D01*
X0118549Y0016350D01*
X0118658Y0016242D01*
X0118764Y0016131D01*
X0118868Y0016018D01*
X0118968Y0015902D01*
X0119066Y0015784D01*
X0119160Y0015663D01*
X0119251Y0015540D01*
X0119339Y0015414D01*
X0119423Y0015286D01*
X0119505Y0015156D01*
X0119582Y0015024D01*
X0119657Y0014890D01*
X0119728Y0014754D01*
X0119795Y0014616D01*
X0119859Y0014476D01*
X0119919Y0014335D01*
X0119975Y0014193D01*
X0120028Y0014049D01*
X0120077Y0013903D01*
X0120122Y0013757D01*
X0120163Y0013609D01*
X0120200Y0013461D01*
X0120234Y0013311D01*
X0120264Y0013160D01*
X0120289Y0013009D01*
X0120311Y0012858D01*
X0120329Y0012705D01*
X0120343Y0012553D01*
X0120353Y0012400D01*
X0120359Y0012246D01*
X0120361Y0012093D01*
X0120359Y0011940D01*
X0120353Y0011786D01*
X0120343Y0011633D01*
X0120329Y0011481D01*
X0120311Y0011328D01*
X0120289Y0011177D01*
X0120264Y0011026D01*
X0120234Y0010875D01*
X0120200Y0010725D01*
X0120163Y0010577D01*
X0120122Y0010429D01*
X0120077Y0010283D01*
X0120028Y0010137D01*
X0119975Y0009993D01*
X0119919Y0009851D01*
X0119859Y0009710D01*
X0119795Y0009570D01*
X0119728Y0009432D01*
X0119657Y0009296D01*
X0119582Y0009162D01*
X0119505Y0009030D01*
X0119423Y0008900D01*
X0119339Y0008772D01*
X0119251Y0008646D01*
X0119160Y0008523D01*
X0119066Y0008402D01*
X0118968Y0008284D01*
X0118868Y0008168D01*
X0118764Y0008055D01*
X0118658Y0007944D01*
X0118549Y0007836D01*
X0118437Y0007731D01*
X0118323Y0007630D01*
X0118205Y0007531D01*
X0118086Y0007435D01*
X0117964Y0007342D01*
X0117839Y0007253D01*
X0117712Y0007166D01*
X0117583Y0007084D01*
X0117452Y0007004D01*
X0117319Y0006928D01*
X0117184Y0006855D01*
X0117047Y0006786D01*
X0116908Y0006721D01*
X0116768Y0006659D01*
X0116626Y0006601D01*
X0116483Y0006546D01*
X0116338Y0006495D01*
X0116192Y0006448D01*
X0116045Y0006405D01*
X0115897Y0006366D01*
X0115748Y0006330D01*
X0115598Y0006299D01*
X0115447Y0006271D01*
X0115296Y0006247D01*
X0115143Y0006227D01*
X0114991Y0006211D01*
X0114838Y0006199D01*
X0114685Y0006191D01*
X0114532Y0006187D01*
X0114378Y0006187D01*
X0114225Y0006191D01*
X0114072Y0006199D01*
X0113919Y0006211D01*
X0113767Y0006227D01*
X0113614Y0006247D01*
X0113463Y0006271D01*
X0113312Y0006299D01*
X0113162Y0006330D01*
X0113013Y0006366D01*
X0112865Y0006405D01*
X0112718Y0006448D01*
X0112572Y0006495D01*
X0112427Y0006546D01*
X0112284Y0006601D01*
X0112142Y0006659D01*
X0112002Y0006721D01*
X0111863Y0006786D01*
X0111726Y0006855D01*
X0111591Y0006928D01*
X0111458Y0007004D01*
X0111327Y0007084D01*
X0111198Y0007166D01*
X0111071Y0007253D01*
X0110946Y0007342D01*
X0110824Y0007435D01*
X0110705Y0007531D01*
X0110587Y0007630D01*
X0110473Y0007731D01*
X0110361Y0007836D01*
X0110252Y0007944D01*
X0110146Y0008055D01*
X0110042Y0008168D01*
X0109942Y0008284D01*
X0109844Y0008402D01*
X0109750Y0008523D01*
X0109659Y0008646D01*
X0109571Y0008772D01*
X0109487Y0008900D01*
X0109405Y0009030D01*
X0109328Y0009162D01*
X0109253Y0009296D01*
X0109182Y0009432D01*
X0109115Y0009570D01*
X0109051Y0009710D01*
X0108991Y0009851D01*
X0108935Y0009993D01*
X0108882Y0010137D01*
X0108833Y0010283D01*
X0108788Y0010429D01*
X0108747Y0010577D01*
X0108710Y0010725D01*
X0108676Y0010875D01*
X0108646Y0011026D01*
X0108621Y0011177D01*
X0108599Y0011328D01*
X0108581Y0011481D01*
X0108567Y0011633D01*
X0108557Y0011786D01*
X0108551Y0011940D01*
X0108549Y0012093D01*
D11*
X0095250Y0010250D03*
X0085250Y0010250D03*
X0075250Y0010250D03*
X0065250Y0010250D03*
X0055250Y0010250D03*
X0045250Y0010250D03*
X0010250Y0020250D03*
X0010250Y0030250D03*
X0010250Y0040250D03*
X0010250Y0050250D03*
X0010250Y0060250D03*
X0010250Y0070250D03*
X0010250Y0080250D03*
X0010250Y0090250D03*
X0010250Y0100250D03*
X0010250Y0110250D03*
X0010250Y0120250D03*
X0010250Y0130250D03*
X0010250Y0140250D03*
X0010250Y0150250D03*
X0130250Y0150250D03*
X0130250Y0140250D03*
X0130250Y0130250D03*
X0130250Y0120250D03*
X0130250Y0110250D03*
X0130250Y0100250D03*
X0130250Y0090250D03*
X0130250Y0080250D03*
X0130250Y0070250D03*
X0130250Y0060250D03*
X0130250Y0050250D03*
X0130250Y0040250D03*
X0130250Y0030250D03*
X0130250Y0020250D03*
D12*
X0126835Y0025250D02*
X0125206Y0023620D01*
X0124300Y0021434D01*
X0124300Y0019066D01*
X0125206Y0016880D01*
X0126880Y0015206D01*
X0129066Y0014300D01*
X0131434Y0014300D01*
X0133620Y0015206D01*
X0135294Y0016880D01*
X0135827Y0018165D01*
X0135827Y0010331D01*
X0134936Y0010700D01*
X0133564Y0010700D01*
X0132296Y0010175D01*
X0131325Y0009204D01*
X0130800Y0007936D01*
X0130800Y0007689D01*
X0130111Y0007000D01*
X0120896Y0007000D01*
X0121369Y0007473D01*
X0122610Y0010470D01*
X0122610Y0013715D01*
X0121369Y0016712D01*
X0119074Y0019006D01*
X0116077Y0020248D01*
X0112832Y0020248D01*
X0109835Y0019006D01*
X0107541Y0016712D01*
X0106299Y0013715D01*
X0106299Y0010470D01*
X0107541Y0007473D01*
X0108014Y0007000D01*
X0100344Y0007000D01*
X0101200Y0009066D01*
X0101200Y0011434D01*
X0100294Y0013620D01*
X0098620Y0015294D01*
X0096434Y0016200D01*
X0094066Y0016200D01*
X0091880Y0015294D01*
X0090250Y0013665D01*
X0088620Y0015294D01*
X0086434Y0016200D01*
X0084066Y0016200D01*
X0081880Y0015294D01*
X0080250Y0013665D01*
X0078620Y0015294D01*
X0076434Y0016200D01*
X0074066Y0016200D01*
X0071880Y0015294D01*
X0070250Y0013665D01*
X0068620Y0015294D01*
X0066434Y0016200D01*
X0064066Y0016200D01*
X0061880Y0015294D01*
X0060250Y0013665D01*
X0058620Y0015294D01*
X0056434Y0016200D01*
X0054066Y0016200D01*
X0051880Y0015294D01*
X0050250Y0013665D01*
X0048620Y0015294D01*
X0046434Y0016200D01*
X0044066Y0016200D01*
X0041880Y0015294D01*
X0040206Y0013620D01*
X0039410Y0011700D01*
X0038564Y0011700D01*
X0037296Y0011175D01*
X0036325Y0010204D01*
X0035800Y0008936D01*
X0035800Y0008689D01*
X0034111Y0007000D01*
X0032313Y0007000D01*
X0032786Y0007473D01*
X0034028Y0010470D01*
X0034028Y0013715D01*
X0032786Y0016712D01*
X0030492Y0019006D01*
X0027494Y0020248D01*
X0024250Y0020248D01*
X0021252Y0019006D01*
X0018958Y0016712D01*
X0017717Y0013715D01*
X0017717Y0010470D01*
X0018958Y0007473D01*
X0019431Y0007000D01*
X0009389Y0007000D01*
X0007000Y0009389D01*
X0007000Y0015156D01*
X0009066Y0014300D01*
X0011434Y0014300D01*
X0013620Y0015206D01*
X0015294Y0016880D01*
X0016200Y0019066D01*
X0016200Y0020311D01*
X0023808Y0027919D01*
X0024581Y0028692D01*
X0025000Y0029703D01*
X0025000Y0047111D01*
X0049808Y0071919D01*
X0050581Y0072692D01*
X0051000Y0073703D01*
X0051000Y0123826D01*
X0052204Y0124325D01*
X0053175Y0125296D01*
X0053700Y0126564D01*
X0053700Y0127936D01*
X0053175Y0129204D01*
X0053129Y0129250D01*
X0053175Y0129296D01*
X0053700Y0130564D01*
X0053700Y0131936D01*
X0053175Y0133204D01*
X0053129Y0133250D01*
X0053175Y0133296D01*
X0053700Y0134564D01*
X0053700Y0135936D01*
X0053175Y0137204D01*
X0053129Y0137250D01*
X0053175Y0137296D01*
X0053700Y0138564D01*
X0053700Y0139936D01*
X0053175Y0141204D01*
X0053129Y0141250D01*
X0053175Y0141296D01*
X0053700Y0142564D01*
X0053700Y0143936D01*
X0053175Y0145204D01*
X0052204Y0146175D01*
X0050936Y0146700D01*
X0049564Y0146700D01*
X0048296Y0146175D01*
X0047325Y0145204D01*
X0046800Y0143936D01*
X0046800Y0143689D01*
X0038692Y0135581D01*
X0037919Y0134808D01*
X0037500Y0133797D01*
X0037500Y0083389D01*
X0017111Y0063000D01*
X0015551Y0063000D01*
X0015294Y0063620D01*
X0013665Y0065250D01*
X0015294Y0066880D01*
X0016200Y0069066D01*
X0016200Y0071434D01*
X0015294Y0073620D01*
X0013665Y0075250D01*
X0015294Y0076880D01*
X0015551Y0077500D01*
X0022797Y0077500D01*
X0023808Y0077919D01*
X0024581Y0078692D01*
X0026689Y0080800D01*
X0026936Y0080800D01*
X0028204Y0081325D01*
X0029175Y0082296D01*
X0029700Y0083564D01*
X0029700Y0084936D01*
X0029175Y0086204D01*
X0028204Y0087175D01*
X0027108Y0087629D01*
X0027808Y0087919D01*
X0028581Y0088692D01*
X0029689Y0089800D01*
X0029936Y0089800D01*
X0031204Y0090325D01*
X0032175Y0091296D01*
X0032700Y0092564D01*
X0032700Y0093936D01*
X0032175Y0095204D01*
X0031204Y0096175D01*
X0029936Y0096700D01*
X0028564Y0096700D01*
X0027296Y0096175D01*
X0026325Y0095204D01*
X0025800Y0093936D01*
X0025800Y0093689D01*
X0025111Y0093000D01*
X0015551Y0093000D01*
X0015294Y0093620D01*
X0013665Y0095250D01*
X0015294Y0096880D01*
X0016200Y0099066D01*
X0016200Y0101434D01*
X0015294Y0103620D01*
X0013665Y0105250D01*
X0015294Y0106880D01*
X0015551Y0107500D01*
X0026121Y0107500D01*
X0026296Y0107325D01*
X0027564Y0106800D01*
X0028936Y0106800D01*
X0030204Y0107325D01*
X0031175Y0108296D01*
X0031700Y0109564D01*
X0031700Y0110936D01*
X0031175Y0112204D01*
X0030204Y0113175D01*
X0028936Y0113700D01*
X0027564Y0113700D01*
X0026296Y0113175D01*
X0026121Y0113000D01*
X0015551Y0113000D01*
X0015294Y0113620D01*
X0013665Y0115250D01*
X0015294Y0116880D01*
X0016200Y0119066D01*
X0016200Y0121434D01*
X0015294Y0123620D01*
X0013665Y0125250D01*
X0015294Y0126880D01*
X0015551Y0127500D01*
X0019111Y0127500D01*
X0024800Y0121811D01*
X0024800Y0121564D01*
X0025325Y0120296D01*
X0026296Y0119325D01*
X0027564Y0118800D01*
X0028936Y0118800D01*
X0030204Y0119325D01*
X0031175Y0120296D01*
X0031700Y0121564D01*
X0031700Y0122936D01*
X0031175Y0124204D01*
X0030204Y0125175D01*
X0028936Y0125700D01*
X0028689Y0125700D01*
X0022581Y0131808D01*
X0021808Y0132581D01*
X0020797Y0133000D01*
X0015551Y0133000D01*
X0015294Y0133620D01*
X0013665Y0135250D01*
X0015294Y0136880D01*
X0015551Y0137500D01*
X0026121Y0137500D01*
X0026296Y0137325D01*
X0027564Y0136800D01*
X0028936Y0136800D01*
X0030204Y0137325D01*
X0031175Y0138296D01*
X0031700Y0139564D01*
X0031700Y0140936D01*
X0031175Y0142204D01*
X0030204Y0143175D01*
X0028936Y0143700D01*
X0027564Y0143700D01*
X0026296Y0143175D01*
X0026121Y0143000D01*
X0015551Y0143000D01*
X0015294Y0143620D01*
X0013665Y0145250D01*
X0015294Y0146880D01*
X0016200Y0149066D01*
X0016200Y0151434D01*
X0015344Y0153500D01*
X0041048Y0153500D01*
X0042449Y0152099D01*
X0042488Y0148377D01*
X0041811Y0147700D01*
X0041564Y0147700D01*
X0040296Y0147175D01*
X0039325Y0146204D01*
X0038800Y0144936D01*
X0038800Y0143564D01*
X0039325Y0142296D01*
X0040296Y0141325D01*
X0041564Y0140800D01*
X0042936Y0140800D01*
X0044204Y0141325D01*
X0045175Y0142296D01*
X0045700Y0143564D01*
X0045700Y0143811D01*
X0046818Y0144929D01*
X0046832Y0144935D01*
X0047205Y0145316D01*
X0047581Y0145692D01*
X0047587Y0145706D01*
X0047598Y0145717D01*
X0047796Y0146211D01*
X0048000Y0146703D01*
X0048000Y0146718D01*
X0048006Y0146732D01*
X0048000Y0147264D01*
X0048000Y0147797D01*
X0047994Y0147811D01*
X0047937Y0153264D01*
X0047937Y0153797D01*
X0047931Y0153811D01*
X0047931Y0153826D01*
X0047722Y0154316D01*
X0047518Y0154808D01*
X0047508Y0154818D01*
X0047502Y0154832D01*
X0047121Y0155205D01*
X0047076Y0155250D01*
X0126835Y0155250D01*
X0125206Y0153620D01*
X0124300Y0151434D01*
X0124300Y0149066D01*
X0125206Y0146880D01*
X0126835Y0145250D01*
X0125206Y0143620D01*
X0124300Y0141434D01*
X0124300Y0139066D01*
X0125206Y0136880D01*
X0126835Y0135250D01*
X0125206Y0133620D01*
X0124300Y0131434D01*
X0124300Y0129066D01*
X0125206Y0126880D01*
X0126835Y0125250D01*
X0125206Y0123620D01*
X0124949Y0123000D01*
X0106889Y0123000D01*
X0111791Y0127902D01*
X0111960Y0127902D01*
X0113228Y0128428D01*
X0114198Y0129398D01*
X0114724Y0130666D01*
X0114724Y0132039D01*
X0114198Y0133307D01*
X0113228Y0134277D01*
X0111960Y0134802D01*
X0110587Y0134802D01*
X0109319Y0134277D01*
X0108349Y0133307D01*
X0107824Y0132039D01*
X0107824Y0131713D01*
X0085811Y0109700D01*
X0085564Y0109700D01*
X0084296Y0109175D01*
X0083325Y0108204D01*
X0082800Y0106936D01*
X0082800Y0105564D01*
X0083034Y0105000D01*
X0066379Y0105000D01*
X0066204Y0105175D01*
X0064936Y0105700D01*
X0063564Y0105700D01*
X0062296Y0105175D01*
X0061325Y0104204D01*
X0060800Y0102936D01*
X0060800Y0101564D01*
X0061325Y0100296D01*
X0062296Y0099325D01*
X0063488Y0098831D01*
X0062536Y0097688D01*
X0061296Y0097175D01*
X0060325Y0096204D01*
X0059800Y0094936D01*
X0059800Y0093564D01*
X0060325Y0092296D01*
X0061296Y0091325D01*
X0062564Y0090800D01*
X0063936Y0090800D01*
X0065204Y0091325D01*
X0066175Y0092296D01*
X0066700Y0093564D01*
X0066700Y0094094D01*
X0067530Y0095091D01*
X0068296Y0094325D01*
X0069564Y0093800D01*
X0070936Y0093800D01*
X0072204Y0094325D01*
X0072379Y0094500D01*
X0082288Y0094500D01*
X0058801Y0074626D01*
X0058692Y0074581D01*
X0058386Y0074275D01*
X0058056Y0073996D01*
X0058002Y0073891D01*
X0057919Y0073808D01*
X0057753Y0073408D01*
X0057555Y0073023D01*
X0057545Y0072906D01*
X0057500Y0072797D01*
X0057500Y0072364D01*
X0057464Y0071933D01*
X0057500Y0071821D01*
X0057500Y0051379D01*
X0057325Y0051204D01*
X0056800Y0049936D01*
X0056800Y0048564D01*
X0057325Y0047296D01*
X0058296Y0046325D01*
X0059564Y0045800D01*
X0060936Y0045800D01*
X0062204Y0046325D01*
X0063175Y0047296D01*
X0063700Y0048564D01*
X0063700Y0049936D01*
X0063175Y0051204D01*
X0063000Y0051379D01*
X0063000Y0070975D01*
X0086430Y0090800D01*
X0086936Y0090800D01*
X0088204Y0091325D01*
X0089175Y0092296D01*
X0089700Y0093564D01*
X0089700Y0094500D01*
X0091797Y0094500D01*
X0092808Y0094919D01*
X0095389Y0097500D01*
X0111081Y0097500D01*
X0110296Y0097175D01*
X0110121Y0097000D01*
X0095703Y0097000D01*
X0094692Y0096581D01*
X0087811Y0089700D01*
X0087564Y0089700D01*
X0086296Y0089175D01*
X0085325Y0088204D01*
X0084800Y0086936D01*
X0084800Y0085564D01*
X0085325Y0084296D01*
X0086296Y0083325D01*
X0087564Y0082800D01*
X0088936Y0082800D01*
X0090204Y0083325D01*
X0091175Y0084296D01*
X0091700Y0085564D01*
X0091700Y0085811D01*
X0097389Y0091500D01*
X0110121Y0091500D01*
X0110296Y0091325D01*
X0111564Y0090800D01*
X0112936Y0090800D01*
X0114204Y0091325D01*
X0115175Y0092296D01*
X0115700Y0093564D01*
X0115700Y0094936D01*
X0115175Y0096204D01*
X0114204Y0097175D01*
X0113419Y0097500D01*
X0124949Y0097500D01*
X0125206Y0096880D01*
X0126835Y0095250D01*
X0125206Y0093620D01*
X0124793Y0092623D01*
X0124692Y0092581D01*
X0123919Y0091808D01*
X0120692Y0088581D01*
X0119919Y0087808D01*
X0119500Y0086797D01*
X0119500Y0081389D01*
X0114111Y0076000D01*
X0074379Y0076000D01*
X0074204Y0076175D01*
X0072936Y0076700D01*
X0071564Y0076700D01*
X0070296Y0076175D01*
X0069325Y0075204D01*
X0068800Y0073936D01*
X0068800Y0072564D01*
X0069325Y0071296D01*
X0070296Y0070325D01*
X0070477Y0070250D01*
X0070296Y0070175D01*
X0069325Y0069204D01*
X0068800Y0067936D01*
X0068800Y0066564D01*
X0069325Y0065296D01*
X0070296Y0064325D01*
X0071564Y0063800D01*
X0072936Y0063800D01*
X0074204Y0064325D01*
X0074379Y0064500D01*
X0087081Y0064500D01*
X0086296Y0064175D01*
X0085325Y0063204D01*
X0084800Y0061936D01*
X0084800Y0061700D01*
X0084564Y0061700D01*
X0083296Y0061175D01*
X0082325Y0060204D01*
X0081800Y0058936D01*
X0081800Y0057564D01*
X0082325Y0056296D01*
X0083296Y0055325D01*
X0084564Y0054800D01*
X0085936Y0054800D01*
X0087204Y0055325D01*
X0087379Y0055500D01*
X0109111Y0055500D01*
X0110500Y0054111D01*
X0110500Y0047703D01*
X0110919Y0046692D01*
X0118919Y0038692D01*
X0119692Y0037919D01*
X0120703Y0037500D01*
X0124949Y0037500D01*
X0125206Y0036880D01*
X0126835Y0035250D01*
X0125206Y0033620D01*
X0124300Y0031434D01*
X0124300Y0029066D01*
X0125206Y0026880D01*
X0126835Y0025250D01*
X0126322Y0024737D02*
X0020626Y0024737D01*
X0023124Y0027235D02*
X0125059Y0027235D01*
X0124300Y0029734D02*
X0025000Y0029734D01*
X0025000Y0032232D02*
X0124631Y0032232D01*
X0126316Y0034731D02*
X0025000Y0034731D01*
X0025000Y0037229D02*
X0125061Y0037229D01*
X0117883Y0039728D02*
X0025000Y0039728D01*
X0025000Y0042226D02*
X0115385Y0042226D01*
X0112886Y0044725D02*
X0025000Y0044725D01*
X0025112Y0047223D02*
X0057398Y0047223D01*
X0056800Y0049722D02*
X0027611Y0049722D01*
X0030109Y0052220D02*
X0057500Y0052220D01*
X0057500Y0054719D02*
X0032608Y0054719D01*
X0035106Y0057217D02*
X0057500Y0057217D01*
X0057500Y0059716D02*
X0037605Y0059716D01*
X0040103Y0062214D02*
X0057500Y0062214D01*
X0057500Y0064713D02*
X0042602Y0064713D01*
X0045100Y0067211D02*
X0057500Y0067211D01*
X0057500Y0069710D02*
X0047599Y0069710D01*
X0050097Y0072208D02*
X0057487Y0072208D01*
X0058896Y0074707D02*
X0051000Y0074707D01*
X0051000Y0077205D02*
X0061849Y0077205D01*
X0064802Y0079704D02*
X0051000Y0079704D01*
X0051000Y0082202D02*
X0067755Y0082202D01*
X0070707Y0084701D02*
X0051000Y0084701D01*
X0051000Y0087199D02*
X0073660Y0087199D01*
X0076613Y0089698D02*
X0051000Y0089698D01*
X0051000Y0092196D02*
X0060425Y0092196D01*
X0059800Y0094695D02*
X0051000Y0094695D01*
X0051000Y0097193D02*
X0061341Y0097193D01*
X0061929Y0099692D02*
X0051000Y0099692D01*
X0051000Y0102190D02*
X0060800Y0102190D01*
X0061810Y0104689D02*
X0051000Y0104689D01*
X0051000Y0107187D02*
X0082904Y0107187D01*
X0085530Y0109686D02*
X0051000Y0109686D01*
X0051000Y0112184D02*
X0088295Y0112184D01*
X0090794Y0114683D02*
X0051000Y0114683D01*
X0051000Y0117182D02*
X0093292Y0117182D01*
X0095791Y0119680D02*
X0051000Y0119680D01*
X0051000Y0122179D02*
X0098289Y0122179D01*
X0100788Y0124677D02*
X0052556Y0124677D01*
X0053700Y0127176D02*
X0103286Y0127176D01*
X0105785Y0129674D02*
X0053331Y0129674D01*
X0053602Y0132173D02*
X0107879Y0132173D01*
X0110271Y0134671D02*
X0053700Y0134671D01*
X0053189Y0137170D02*
X0125086Y0137170D01*
X0124300Y0139668D02*
X0053700Y0139668D01*
X0053535Y0142167D02*
X0124604Y0142167D01*
X0126251Y0144665D02*
X0053398Y0144665D01*
X0048001Y0147164D02*
X0125088Y0147164D01*
X0124300Y0149662D02*
X0047975Y0149662D01*
X0047949Y0152161D02*
X0124601Y0152161D01*
X0126245Y0154659D02*
X0047580Y0154659D01*
X0042387Y0152161D02*
X0015899Y0152161D01*
X0016200Y0149662D02*
X0042475Y0149662D01*
X0040285Y0147164D02*
X0015412Y0147164D01*
X0014249Y0144665D02*
X0038800Y0144665D01*
X0039454Y0142167D02*
X0031190Y0142167D01*
X0031700Y0139668D02*
X0042779Y0139668D01*
X0045046Y0142167D02*
X0045278Y0142167D01*
X0046554Y0144665D02*
X0047102Y0144665D01*
X0040281Y0137170D02*
X0029829Y0137170D01*
X0026671Y0137170D02*
X0015414Y0137170D01*
X0014243Y0134671D02*
X0037862Y0134671D01*
X0037500Y0132173D02*
X0022216Y0132173D01*
X0024715Y0129674D02*
X0037500Y0129674D01*
X0037500Y0127176D02*
X0027213Y0127176D01*
X0030702Y0124677D02*
X0037500Y0124677D01*
X0037500Y0122179D02*
X0031700Y0122179D01*
X0030559Y0119680D02*
X0037500Y0119680D01*
X0037500Y0117182D02*
X0015419Y0117182D01*
X0016200Y0119680D02*
X0025941Y0119680D01*
X0024432Y0122179D02*
X0015891Y0122179D01*
X0014237Y0124677D02*
X0021934Y0124677D01*
X0019435Y0127176D02*
X0015417Y0127176D01*
X0014232Y0114683D02*
X0037500Y0114683D01*
X0037500Y0112184D02*
X0031183Y0112184D01*
X0031700Y0109686D02*
X0037500Y0109686D01*
X0037500Y0107187D02*
X0029872Y0107187D01*
X0026628Y0107187D02*
X0015422Y0107187D01*
X0014226Y0104689D02*
X0037500Y0104689D01*
X0037500Y0102190D02*
X0015886Y0102190D01*
X0016200Y0099692D02*
X0037500Y0099692D01*
X0037500Y0097193D02*
X0015424Y0097193D01*
X0014220Y0094695D02*
X0026114Y0094695D01*
X0029587Y0089698D02*
X0037500Y0089698D01*
X0037500Y0092196D02*
X0032548Y0092196D01*
X0032386Y0094695D02*
X0037500Y0094695D01*
X0037500Y0087199D02*
X0028145Y0087199D01*
X0029700Y0084701D02*
X0037500Y0084701D01*
X0036313Y0082202D02*
X0029081Y0082202D01*
X0025593Y0079704D02*
X0033815Y0079704D01*
X0031316Y0077205D02*
X0015429Y0077205D01*
X0014208Y0074707D02*
X0028818Y0074707D01*
X0026319Y0072208D02*
X0015879Y0072208D01*
X0016200Y0069710D02*
X0023821Y0069710D01*
X0021322Y0067211D02*
X0015432Y0067211D01*
X0014202Y0064713D02*
X0018824Y0064713D01*
X0018127Y0022238D02*
X0124633Y0022238D01*
X0124300Y0019740D02*
X0117304Y0019740D01*
X0120840Y0017241D02*
X0125056Y0017241D01*
X0122184Y0014743D02*
X0127998Y0014743D01*
X0132502Y0014743D02*
X0135827Y0014743D01*
X0135827Y0017241D02*
X0135444Y0017241D01*
X0135827Y0012244D02*
X0122610Y0012244D01*
X0122310Y0009746D02*
X0131867Y0009746D01*
X0130358Y0007247D02*
X0121143Y0007247D01*
X0111605Y0019740D02*
X0028722Y0019740D01*
X0032257Y0017241D02*
X0108070Y0017241D01*
X0106725Y0014743D02*
X0099172Y0014743D01*
X0100864Y0012244D02*
X0106299Y0012244D01*
X0106599Y0009746D02*
X0101200Y0009746D01*
X0100446Y0007247D02*
X0107767Y0007247D01*
X0091328Y0014743D02*
X0089172Y0014743D01*
X0081328Y0014743D02*
X0079172Y0014743D01*
X0071328Y0014743D02*
X0069172Y0014743D01*
X0061328Y0014743D02*
X0059172Y0014743D01*
X0051328Y0014743D02*
X0049172Y0014743D01*
X0041328Y0014743D02*
X0033602Y0014743D01*
X0034028Y0012244D02*
X0039636Y0012244D01*
X0036135Y0009746D02*
X0033727Y0009746D01*
X0034358Y0007247D02*
X0032560Y0007247D01*
X0023022Y0019740D02*
X0016200Y0019740D01*
X0015444Y0017241D02*
X0019487Y0017241D01*
X0018142Y0014743D02*
X0012502Y0014743D01*
X0007998Y0014743D02*
X0007000Y0014743D01*
X0007000Y0012244D02*
X0017717Y0012244D01*
X0018017Y0009746D02*
X0007000Y0009746D01*
X0009142Y0007247D02*
X0019184Y0007247D01*
X0063102Y0047223D02*
X0110699Y0047223D01*
X0110500Y0049722D02*
X0063700Y0049722D01*
X0063000Y0052220D02*
X0110500Y0052220D01*
X0109892Y0054719D02*
X0063000Y0054719D01*
X0063000Y0057217D02*
X0081944Y0057217D01*
X0082123Y0059716D02*
X0063000Y0059716D01*
X0063000Y0062214D02*
X0084915Y0062214D01*
X0073316Y0079704D02*
X0117815Y0079704D01*
X0115316Y0077205D02*
X0070364Y0077205D01*
X0069119Y0074707D02*
X0067411Y0074707D01*
X0068947Y0072208D02*
X0064458Y0072208D01*
X0063000Y0069710D02*
X0069831Y0069710D01*
X0068800Y0067211D02*
X0063000Y0067211D01*
X0063000Y0064713D02*
X0069908Y0064713D01*
X0076269Y0082202D02*
X0119500Y0082202D01*
X0119500Y0084701D02*
X0091343Y0084701D01*
X0093088Y0087199D02*
X0119667Y0087199D01*
X0120692Y0088581D02*
X0120692Y0088581D01*
X0121809Y0089698D02*
X0095587Y0089698D01*
X0092806Y0094695D02*
X0092268Y0094695D01*
X0090307Y0092196D02*
X0089075Y0092196D01*
X0087559Y0089698D02*
X0085128Y0089698D01*
X0084909Y0087199D02*
X0082175Y0087199D01*
X0079222Y0084701D02*
X0085157Y0084701D01*
X0079566Y0092196D02*
X0066075Y0092196D01*
X0067200Y0094695D02*
X0067926Y0094695D01*
X0095083Y0097193D02*
X0110341Y0097193D01*
X0114159Y0097193D02*
X0125076Y0097193D01*
X0126280Y0094695D02*
X0115700Y0094695D01*
X0115075Y0092196D02*
X0124307Y0092196D01*
X0123919Y0091808D02*
X0123919Y0091808D01*
X0126262Y0124677D02*
X0108566Y0124677D01*
X0111065Y0127176D02*
X0125083Y0127176D01*
X0124300Y0129674D02*
X0114313Y0129674D01*
X0114668Y0132173D02*
X0124606Y0132173D01*
X0126257Y0134671D02*
X0112277Y0134671D01*
D13*
X0111274Y0131352D03*
X0096250Y0152250D03*
X0090250Y0152250D03*
X0084250Y0152250D03*
X0078250Y0152250D03*
X0072250Y0152250D03*
X0066250Y0152250D03*
X0060250Y0152250D03*
X0054250Y0152250D03*
X0048250Y0152250D03*
X0042250Y0152250D03*
X0042250Y0144250D03*
X0050250Y0143250D03*
X0050250Y0139250D03*
X0050250Y0135250D03*
X0050250Y0131250D03*
X0050250Y0127250D03*
X0054250Y0108250D03*
X0064250Y0102250D03*
X0070250Y0097250D03*
X0063250Y0094250D03*
X0068250Y0088250D03*
X0072250Y0073250D03*
X0075250Y0070250D03*
X0072250Y0067250D03*
X0085250Y0058250D03*
X0088250Y0061250D03*
X0091250Y0064250D03*
X0088250Y0044250D03*
X0080250Y0044250D03*
X0060250Y0049250D03*
X0050250Y0028250D03*
X0039250Y0008250D03*
X0012250Y0010250D03*
X0052250Y0074250D03*
X0028250Y0078250D03*
X0026250Y0084250D03*
X0029250Y0093250D03*
X0028250Y0110250D03*
X0028250Y0122250D03*
X0028250Y0140250D03*
X0086250Y0106250D03*
X0086250Y0094250D03*
X0088250Y0086250D03*
X0098250Y0088250D03*
X0110586Y0105268D03*
X0112250Y0094250D03*
X0112250Y0080250D03*
X0114250Y0032250D03*
X0114250Y0024250D03*
X0128250Y0010250D03*
X0134250Y0007250D03*
X0088250Y0130250D03*
D14*
X0100250Y0110250D02*
X0130250Y0110250D01*
X0134444Y0105268D02*
X0136250Y0103250D01*
X0136250Y0035250D01*
X0131250Y0030250D01*
X0130250Y0030250D01*
X0130250Y0040250D02*
X0121250Y0040250D01*
X0113250Y0048250D01*
X0113250Y0055250D01*
X0110250Y0058250D01*
X0085250Y0058250D01*
X0088250Y0061250D02*
X0113250Y0061250D01*
X0124250Y0050250D01*
X0130250Y0050250D01*
X0130250Y0060250D02*
X0124250Y0060250D01*
X0119250Y0064250D01*
X0091250Y0064250D01*
X0075250Y0070250D02*
X0117250Y0070250D01*
X0127250Y0080250D01*
X0130250Y0080250D01*
X0122250Y0080250D02*
X0122250Y0086250D01*
X0126250Y0090250D01*
X0130250Y0090250D01*
X0122250Y0080250D02*
X0115250Y0073250D01*
X0072250Y0073250D01*
X0072250Y0067250D02*
X0119250Y0067250D01*
X0122250Y0070250D01*
X0130250Y0070250D01*
X0112250Y0094250D02*
X0096250Y0094250D01*
X0088250Y0086250D01*
X0086250Y0094250D02*
X0060250Y0072250D01*
X0060250Y0049250D01*
X0048250Y0074250D02*
X0048250Y0125250D01*
X0050250Y0127250D01*
X0046250Y0127250D02*
X0050250Y0131250D01*
X0050250Y0135250D02*
X0044250Y0129250D01*
X0044250Y0078250D01*
X0018250Y0052250D01*
X0018250Y0044250D01*
X0014250Y0040250D01*
X0010250Y0040250D01*
X0010250Y0050250D02*
X0012250Y0050250D01*
X0042250Y0080250D01*
X0042250Y0131250D01*
X0050250Y0139250D01*
X0050250Y0143250D02*
X0040250Y0133250D01*
X0040250Y0082250D01*
X0018250Y0060250D01*
X0010250Y0060250D01*
X0020250Y0050250D02*
X0046250Y0076250D01*
X0046250Y0127250D01*
X0042250Y0144250D02*
X0045250Y0147250D01*
X0045187Y0153250D01*
X0042187Y0156250D01*
X0006250Y0156250D01*
X0004250Y0154250D01*
X0004250Y0008250D01*
X0008250Y0004250D01*
X0035250Y0004250D01*
X0039250Y0008250D01*
X0055250Y0010250D02*
X0055250Y0005250D01*
X0056250Y0004250D01*
X0131250Y0004250D01*
X0134250Y0007250D01*
X0091250Y0097250D02*
X0070250Y0097250D01*
X0068250Y0100250D02*
X0063250Y0094250D01*
X0068250Y0100250D02*
X0090250Y0100250D01*
X0100250Y0110250D01*
X0094250Y0100250D02*
X0130250Y0100250D01*
X0134444Y0105268D02*
X0110586Y0105268D01*
X0106250Y0120250D02*
X0130250Y0120250D01*
X0111274Y0131274D02*
X0086250Y0106250D01*
X0088250Y0102250D02*
X0064250Y0102250D01*
X0048250Y0074250D02*
X0022250Y0048250D01*
X0022250Y0030250D01*
X0012250Y0020250D01*
X0010250Y0020250D01*
X0010250Y0030250D02*
X0012250Y0030250D01*
X0020250Y0038250D01*
X0020250Y0050250D01*
X0022250Y0080250D02*
X0010250Y0080250D01*
X0010250Y0090250D02*
X0026250Y0090250D01*
X0029250Y0093250D01*
X0026250Y0084250D02*
X0022250Y0080250D01*
X0028250Y0110250D02*
X0010250Y0110250D01*
X0010250Y0130250D02*
X0020250Y0130250D01*
X0028250Y0122250D01*
X0028250Y0140250D02*
X0010250Y0140250D01*
X0088250Y0102250D02*
X0106250Y0120250D01*
X0111274Y0131274D02*
X0111274Y0131352D01*
X0094250Y0100250D02*
X0091250Y0097250D01*
M02*
