G75*
%MOIN*%
%OFA0B0*%
%FSLAX25Y25*%
%IPPOS*%
%LPD*%
%AMOC8*
5,1,8,0,0,1.08239X$1,22.5*
%
%ADD10C,0.00000*%
%ADD11C,0.12211*%
%ADD12C,0.07800*%
D10*
X0002250Y0006187D02*
X0006187Y0002250D01*
X0134140Y0002250D01*
X0138077Y0006187D01*
X0138077Y0155793D01*
X0134140Y0159730D01*
X0006187Y0159730D01*
X0002250Y0155793D01*
X0002250Y0006187D01*
X0019966Y0012093D02*
X0019968Y0012246D01*
X0019974Y0012400D01*
X0019984Y0012553D01*
X0019998Y0012705D01*
X0020016Y0012858D01*
X0020038Y0013009D01*
X0020063Y0013160D01*
X0020093Y0013311D01*
X0020127Y0013461D01*
X0020164Y0013609D01*
X0020205Y0013757D01*
X0020250Y0013903D01*
X0020299Y0014049D01*
X0020352Y0014193D01*
X0020408Y0014335D01*
X0020468Y0014476D01*
X0020532Y0014616D01*
X0020599Y0014754D01*
X0020670Y0014890D01*
X0020745Y0015024D01*
X0020822Y0015156D01*
X0020904Y0015286D01*
X0020988Y0015414D01*
X0021076Y0015540D01*
X0021167Y0015663D01*
X0021261Y0015784D01*
X0021359Y0015902D01*
X0021459Y0016018D01*
X0021563Y0016131D01*
X0021669Y0016242D01*
X0021778Y0016350D01*
X0021890Y0016455D01*
X0022004Y0016556D01*
X0022122Y0016655D01*
X0022241Y0016751D01*
X0022363Y0016844D01*
X0022488Y0016933D01*
X0022615Y0017020D01*
X0022744Y0017102D01*
X0022875Y0017182D01*
X0023008Y0017258D01*
X0023143Y0017331D01*
X0023280Y0017400D01*
X0023419Y0017465D01*
X0023559Y0017527D01*
X0023701Y0017585D01*
X0023844Y0017640D01*
X0023989Y0017691D01*
X0024135Y0017738D01*
X0024282Y0017781D01*
X0024430Y0017820D01*
X0024579Y0017856D01*
X0024729Y0017887D01*
X0024880Y0017915D01*
X0025031Y0017939D01*
X0025184Y0017959D01*
X0025336Y0017975D01*
X0025489Y0017987D01*
X0025642Y0017995D01*
X0025795Y0017999D01*
X0025949Y0017999D01*
X0026102Y0017995D01*
X0026255Y0017987D01*
X0026408Y0017975D01*
X0026560Y0017959D01*
X0026713Y0017939D01*
X0026864Y0017915D01*
X0027015Y0017887D01*
X0027165Y0017856D01*
X0027314Y0017820D01*
X0027462Y0017781D01*
X0027609Y0017738D01*
X0027755Y0017691D01*
X0027900Y0017640D01*
X0028043Y0017585D01*
X0028185Y0017527D01*
X0028325Y0017465D01*
X0028464Y0017400D01*
X0028601Y0017331D01*
X0028736Y0017258D01*
X0028869Y0017182D01*
X0029000Y0017102D01*
X0029129Y0017020D01*
X0029256Y0016933D01*
X0029381Y0016844D01*
X0029503Y0016751D01*
X0029622Y0016655D01*
X0029740Y0016556D01*
X0029854Y0016455D01*
X0029966Y0016350D01*
X0030075Y0016242D01*
X0030181Y0016131D01*
X0030285Y0016018D01*
X0030385Y0015902D01*
X0030483Y0015784D01*
X0030577Y0015663D01*
X0030668Y0015540D01*
X0030756Y0015414D01*
X0030840Y0015286D01*
X0030922Y0015156D01*
X0030999Y0015024D01*
X0031074Y0014890D01*
X0031145Y0014754D01*
X0031212Y0014616D01*
X0031276Y0014476D01*
X0031336Y0014335D01*
X0031392Y0014193D01*
X0031445Y0014049D01*
X0031494Y0013903D01*
X0031539Y0013757D01*
X0031580Y0013609D01*
X0031617Y0013461D01*
X0031651Y0013311D01*
X0031681Y0013160D01*
X0031706Y0013009D01*
X0031728Y0012858D01*
X0031746Y0012705D01*
X0031760Y0012553D01*
X0031770Y0012400D01*
X0031776Y0012246D01*
X0031778Y0012093D01*
X0031776Y0011940D01*
X0031770Y0011786D01*
X0031760Y0011633D01*
X0031746Y0011481D01*
X0031728Y0011328D01*
X0031706Y0011177D01*
X0031681Y0011026D01*
X0031651Y0010875D01*
X0031617Y0010725D01*
X0031580Y0010577D01*
X0031539Y0010429D01*
X0031494Y0010283D01*
X0031445Y0010137D01*
X0031392Y0009993D01*
X0031336Y0009851D01*
X0031276Y0009710D01*
X0031212Y0009570D01*
X0031145Y0009432D01*
X0031074Y0009296D01*
X0030999Y0009162D01*
X0030922Y0009030D01*
X0030840Y0008900D01*
X0030756Y0008772D01*
X0030668Y0008646D01*
X0030577Y0008523D01*
X0030483Y0008402D01*
X0030385Y0008284D01*
X0030285Y0008168D01*
X0030181Y0008055D01*
X0030075Y0007944D01*
X0029966Y0007836D01*
X0029854Y0007731D01*
X0029740Y0007630D01*
X0029622Y0007531D01*
X0029503Y0007435D01*
X0029381Y0007342D01*
X0029256Y0007253D01*
X0029129Y0007166D01*
X0029000Y0007084D01*
X0028869Y0007004D01*
X0028736Y0006928D01*
X0028601Y0006855D01*
X0028464Y0006786D01*
X0028325Y0006721D01*
X0028185Y0006659D01*
X0028043Y0006601D01*
X0027900Y0006546D01*
X0027755Y0006495D01*
X0027609Y0006448D01*
X0027462Y0006405D01*
X0027314Y0006366D01*
X0027165Y0006330D01*
X0027015Y0006299D01*
X0026864Y0006271D01*
X0026713Y0006247D01*
X0026560Y0006227D01*
X0026408Y0006211D01*
X0026255Y0006199D01*
X0026102Y0006191D01*
X0025949Y0006187D01*
X0025795Y0006187D01*
X0025642Y0006191D01*
X0025489Y0006199D01*
X0025336Y0006211D01*
X0025184Y0006227D01*
X0025031Y0006247D01*
X0024880Y0006271D01*
X0024729Y0006299D01*
X0024579Y0006330D01*
X0024430Y0006366D01*
X0024282Y0006405D01*
X0024135Y0006448D01*
X0023989Y0006495D01*
X0023844Y0006546D01*
X0023701Y0006601D01*
X0023559Y0006659D01*
X0023419Y0006721D01*
X0023280Y0006786D01*
X0023143Y0006855D01*
X0023008Y0006928D01*
X0022875Y0007004D01*
X0022744Y0007084D01*
X0022615Y0007166D01*
X0022488Y0007253D01*
X0022363Y0007342D01*
X0022241Y0007435D01*
X0022122Y0007531D01*
X0022004Y0007630D01*
X0021890Y0007731D01*
X0021778Y0007836D01*
X0021669Y0007944D01*
X0021563Y0008055D01*
X0021459Y0008168D01*
X0021359Y0008284D01*
X0021261Y0008402D01*
X0021167Y0008523D01*
X0021076Y0008646D01*
X0020988Y0008772D01*
X0020904Y0008900D01*
X0020822Y0009030D01*
X0020745Y0009162D01*
X0020670Y0009296D01*
X0020599Y0009432D01*
X0020532Y0009570D01*
X0020468Y0009710D01*
X0020408Y0009851D01*
X0020352Y0009993D01*
X0020299Y0010137D01*
X0020250Y0010283D01*
X0020205Y0010429D01*
X0020164Y0010577D01*
X0020127Y0010725D01*
X0020093Y0010875D01*
X0020063Y0011026D01*
X0020038Y0011177D01*
X0020016Y0011328D01*
X0019998Y0011481D01*
X0019984Y0011633D01*
X0019974Y0011786D01*
X0019968Y0011940D01*
X0019966Y0012093D01*
X0108549Y0012093D02*
X0108551Y0012246D01*
X0108557Y0012400D01*
X0108567Y0012553D01*
X0108581Y0012705D01*
X0108599Y0012858D01*
X0108621Y0013009D01*
X0108646Y0013160D01*
X0108676Y0013311D01*
X0108710Y0013461D01*
X0108747Y0013609D01*
X0108788Y0013757D01*
X0108833Y0013903D01*
X0108882Y0014049D01*
X0108935Y0014193D01*
X0108991Y0014335D01*
X0109051Y0014476D01*
X0109115Y0014616D01*
X0109182Y0014754D01*
X0109253Y0014890D01*
X0109328Y0015024D01*
X0109405Y0015156D01*
X0109487Y0015286D01*
X0109571Y0015414D01*
X0109659Y0015540D01*
X0109750Y0015663D01*
X0109844Y0015784D01*
X0109942Y0015902D01*
X0110042Y0016018D01*
X0110146Y0016131D01*
X0110252Y0016242D01*
X0110361Y0016350D01*
X0110473Y0016455D01*
X0110587Y0016556D01*
X0110705Y0016655D01*
X0110824Y0016751D01*
X0110946Y0016844D01*
X0111071Y0016933D01*
X0111198Y0017020D01*
X0111327Y0017102D01*
X0111458Y0017182D01*
X0111591Y0017258D01*
X0111726Y0017331D01*
X0111863Y0017400D01*
X0112002Y0017465D01*
X0112142Y0017527D01*
X0112284Y0017585D01*
X0112427Y0017640D01*
X0112572Y0017691D01*
X0112718Y0017738D01*
X0112865Y0017781D01*
X0113013Y0017820D01*
X0113162Y0017856D01*
X0113312Y0017887D01*
X0113463Y0017915D01*
X0113614Y0017939D01*
X0113767Y0017959D01*
X0113919Y0017975D01*
X0114072Y0017987D01*
X0114225Y0017995D01*
X0114378Y0017999D01*
X0114532Y0017999D01*
X0114685Y0017995D01*
X0114838Y0017987D01*
X0114991Y0017975D01*
X0115143Y0017959D01*
X0115296Y0017939D01*
X0115447Y0017915D01*
X0115598Y0017887D01*
X0115748Y0017856D01*
X0115897Y0017820D01*
X0116045Y0017781D01*
X0116192Y0017738D01*
X0116338Y0017691D01*
X0116483Y0017640D01*
X0116626Y0017585D01*
X0116768Y0017527D01*
X0116908Y0017465D01*
X0117047Y0017400D01*
X0117184Y0017331D01*
X0117319Y0017258D01*
X0117452Y0017182D01*
X0117583Y0017102D01*
X0117712Y0017020D01*
X0117839Y0016933D01*
X0117964Y0016844D01*
X0118086Y0016751D01*
X0118205Y0016655D01*
X0118323Y0016556D01*
X0118437Y0016455D01*
X0118549Y0016350D01*
X0118658Y0016242D01*
X0118764Y0016131D01*
X0118868Y0016018D01*
X0118968Y0015902D01*
X0119066Y0015784D01*
X0119160Y0015663D01*
X0119251Y0015540D01*
X0119339Y0015414D01*
X0119423Y0015286D01*
X0119505Y0015156D01*
X0119582Y0015024D01*
X0119657Y0014890D01*
X0119728Y0014754D01*
X0119795Y0014616D01*
X0119859Y0014476D01*
X0119919Y0014335D01*
X0119975Y0014193D01*
X0120028Y0014049D01*
X0120077Y0013903D01*
X0120122Y0013757D01*
X0120163Y0013609D01*
X0120200Y0013461D01*
X0120234Y0013311D01*
X0120264Y0013160D01*
X0120289Y0013009D01*
X0120311Y0012858D01*
X0120329Y0012705D01*
X0120343Y0012553D01*
X0120353Y0012400D01*
X0120359Y0012246D01*
X0120361Y0012093D01*
X0120359Y0011940D01*
X0120353Y0011786D01*
X0120343Y0011633D01*
X0120329Y0011481D01*
X0120311Y0011328D01*
X0120289Y0011177D01*
X0120264Y0011026D01*
X0120234Y0010875D01*
X0120200Y0010725D01*
X0120163Y0010577D01*
X0120122Y0010429D01*
X0120077Y0010283D01*
X0120028Y0010137D01*
X0119975Y0009993D01*
X0119919Y0009851D01*
X0119859Y0009710D01*
X0119795Y0009570D01*
X0119728Y0009432D01*
X0119657Y0009296D01*
X0119582Y0009162D01*
X0119505Y0009030D01*
X0119423Y0008900D01*
X0119339Y0008772D01*
X0119251Y0008646D01*
X0119160Y0008523D01*
X0119066Y0008402D01*
X0118968Y0008284D01*
X0118868Y0008168D01*
X0118764Y0008055D01*
X0118658Y0007944D01*
X0118549Y0007836D01*
X0118437Y0007731D01*
X0118323Y0007630D01*
X0118205Y0007531D01*
X0118086Y0007435D01*
X0117964Y0007342D01*
X0117839Y0007253D01*
X0117712Y0007166D01*
X0117583Y0007084D01*
X0117452Y0007004D01*
X0117319Y0006928D01*
X0117184Y0006855D01*
X0117047Y0006786D01*
X0116908Y0006721D01*
X0116768Y0006659D01*
X0116626Y0006601D01*
X0116483Y0006546D01*
X0116338Y0006495D01*
X0116192Y0006448D01*
X0116045Y0006405D01*
X0115897Y0006366D01*
X0115748Y0006330D01*
X0115598Y0006299D01*
X0115447Y0006271D01*
X0115296Y0006247D01*
X0115143Y0006227D01*
X0114991Y0006211D01*
X0114838Y0006199D01*
X0114685Y0006191D01*
X0114532Y0006187D01*
X0114378Y0006187D01*
X0114225Y0006191D01*
X0114072Y0006199D01*
X0113919Y0006211D01*
X0113767Y0006227D01*
X0113614Y0006247D01*
X0113463Y0006271D01*
X0113312Y0006299D01*
X0113162Y0006330D01*
X0113013Y0006366D01*
X0112865Y0006405D01*
X0112718Y0006448D01*
X0112572Y0006495D01*
X0112427Y0006546D01*
X0112284Y0006601D01*
X0112142Y0006659D01*
X0112002Y0006721D01*
X0111863Y0006786D01*
X0111726Y0006855D01*
X0111591Y0006928D01*
X0111458Y0007004D01*
X0111327Y0007084D01*
X0111198Y0007166D01*
X0111071Y0007253D01*
X0110946Y0007342D01*
X0110824Y0007435D01*
X0110705Y0007531D01*
X0110587Y0007630D01*
X0110473Y0007731D01*
X0110361Y0007836D01*
X0110252Y0007944D01*
X0110146Y0008055D01*
X0110042Y0008168D01*
X0109942Y0008284D01*
X0109844Y0008402D01*
X0109750Y0008523D01*
X0109659Y0008646D01*
X0109571Y0008772D01*
X0109487Y0008900D01*
X0109405Y0009030D01*
X0109328Y0009162D01*
X0109253Y0009296D01*
X0109182Y0009432D01*
X0109115Y0009570D01*
X0109051Y0009710D01*
X0108991Y0009851D01*
X0108935Y0009993D01*
X0108882Y0010137D01*
X0108833Y0010283D01*
X0108788Y0010429D01*
X0108747Y0010577D01*
X0108710Y0010725D01*
X0108676Y0010875D01*
X0108646Y0011026D01*
X0108621Y0011177D01*
X0108599Y0011328D01*
X0108581Y0011481D01*
X0108567Y0011633D01*
X0108557Y0011786D01*
X0108551Y0011940D01*
X0108549Y0012093D01*
D11*
X0114455Y0012093D03*
X0025872Y0012093D03*
D12*
X0010250Y0020250D03*
X0010250Y0030250D03*
X0010250Y0040250D03*
X0010250Y0050250D03*
X0010250Y0060250D03*
X0010250Y0070250D03*
X0010250Y0080250D03*
X0010250Y0090250D03*
X0010250Y0100250D03*
X0010250Y0110250D03*
X0010250Y0120250D03*
X0010250Y0130250D03*
X0010250Y0140250D03*
X0010250Y0150250D03*
X0045250Y0010250D03*
X0055250Y0010250D03*
X0065250Y0010250D03*
X0075250Y0010250D03*
X0085250Y0010250D03*
X0095250Y0010250D03*
X0130250Y0020250D03*
X0130250Y0030250D03*
X0130250Y0040250D03*
X0130250Y0050250D03*
X0130250Y0060250D03*
X0130250Y0070250D03*
X0130250Y0080250D03*
X0130250Y0090250D03*
X0130250Y0100250D03*
X0130250Y0110250D03*
X0130250Y0120250D03*
X0130250Y0130250D03*
X0130250Y0140250D03*
X0130250Y0150250D03*
M02*
